<svg width="92" height="35" viewBox="0 0 92 35" fill="none" xmlns="http://www.w3.org/2000/svg">
<path d="M26.1527 7.47938C26.1457 7.49981 26.1353 7.52364 26.1353 7.54407C26.1284 7.66322 26.1284 7.78237 26.1215 7.90152C26.1145 8.00025 26.1041 8.09898 26.0972 8.19771C26.0937 8.25899 26.0902 8.32367 26.0868 8.38494C26.0833 8.46665 26.0798 8.55176 26.0764 8.63347C26.0729 8.70155 26.0659 8.77304 26.0625 8.84113C26.0521 9.01135 26.0417 9.17816 26.0313 9.34838C26.0278 9.41306 26.0208 9.48115 26.0139 9.54583C26.0035 9.69222 25.9966 9.83861 25.9827 9.98159C25.9757 10.0735 25.9653 10.1654 25.9584 10.2573C25.9549 10.3186 25.9515 10.3833 25.948 10.448C25.9376 10.5876 25.9237 10.7271 25.9133 10.8633C25.9064 10.962 25.9029 11.0608 25.8925 11.1629C25.8821 11.2889 25.8682 11.4148 25.8578 11.5408C25.8404 11.7485 25.8231 11.9561 25.8023 12.1672C25.7988 12.2251 25.7884 12.2795 25.7815 12.334C25.7537 12.5757 25.7329 12.8174 25.7017 13.0557C25.6808 13.2225 25.6566 13.3928 25.6357 13.5596C25.6253 13.6311 25.6219 13.706 25.6115 13.7775C25.5802 13.9885 25.5525 14.1996 25.5178 14.4073C25.5004 14.5332 25.4761 14.6558 25.4553 14.7817C25.431 14.9247 25.4102 15.0711 25.3859 15.2141C25.3651 15.3367 25.3408 15.4558 25.3165 15.575C25.2957 15.6941 25.2749 15.8099 25.2506 15.929C25.2333 16.0277 25.2125 16.1265 25.1916 16.2218C25.1639 16.358 25.1361 16.4941 25.1049 16.6303C25.0841 16.7188 25.0633 16.8039 25.0425 16.8924C25.0216 16.9878 25.0008 17.0797 24.9765 17.175C24.9349 17.3452 24.8933 17.5188 24.8516 17.6891C24.8308 17.781 24.81 17.8695 24.7857 17.9614C24.751 18.0908 24.7163 18.2167 24.6816 18.3461C24.6435 18.4789 24.6053 18.6151 24.5671 18.7478C24.5255 18.8874 24.4839 19.027 24.4422 19.17C24.4076 19.2891 24.3729 19.4049 24.3347 19.524C24.2792 19.6942 24.2237 19.8645 24.1647 20.0347C24.1022 20.2219 24.0398 20.4057 23.9739 20.5896C23.908 20.7768 23.8386 20.9641 23.7692 21.1513C23.6824 21.376 23.5957 21.5973 23.5055 21.8186C23.4257 22.016 23.339 22.2101 23.2557 22.4041C23.1932 22.5505 23.1273 22.6969 23.0614 22.8399C23.0059 22.9624 22.9469 23.0884 22.8879 23.2109C22.7943 23.405 22.7006 23.599 22.6034 23.7931C22.4889 24.0178 22.3779 24.2459 22.253 24.4671C22.0622 24.811 21.8714 25.1548 21.6736 25.4953C21.3995 25.9583 21.1116 26.411 20.8063 26.8536C20.5391 27.2451 20.2581 27.6298 19.9632 28.0043C19.7897 28.2256 19.6128 28.4434 19.4358 28.6613C19.193 28.9609 18.9397 29.2503 18.676 29.5328C18.4852 29.7371 18.3013 29.9448 18.1001 30.1388C17.944 30.292 17.7948 30.4486 17.6352 30.6018C17.4444 30.7857 17.2501 30.9661 17.0523 31.1431C16.8442 31.3303 16.636 31.5142 16.4244 31.6946C16.1988 31.8853 15.9699 32.0725 15.7339 32.2529C15.4599 32.464 15.1858 32.6751 14.9047 32.8793C14.6133 33.0938 14.3149 33.3015 14.0096 33.4989C13.9021 33.567 13.798 33.6419 13.6904 33.7134C13.5482 33.8053 13.4025 33.8972 13.2568 33.9891C13.2394 33.9994 13.229 34.0164 13.2117 34.03C13.1388 34.03 13.0625 34.03 12.9896 34.03C12.9827 34.0198 12.9827 34.0028 12.9723 33.996C12.5871 33.7679 12.2159 33.5159 11.8482 33.264C11.5151 33.0359 11.189 32.801 10.8663 32.5559C10.6755 32.4095 10.4881 32.2631 10.3043 32.1133C10.1273 31.9738 9.95384 31.8308 9.78384 31.6844C9.57567 31.504 9.37097 31.3201 9.16281 31.1397C8.99974 31.0001 8.84362 30.8503 8.69096 30.7005C8.573 30.5848 8.45157 30.4758 8.33361 30.3601C8.16361 30.1899 7.99013 30.0197 7.82707 29.8426C7.59462 29.5941 7.3691 29.3456 7.14359 29.0903C6.79318 28.6886 6.45664 28.2766 6.13398 27.8545C5.88765 27.5311 5.64479 27.2009 5.4158 26.8638C5.19376 26.5438 4.97865 26.217 4.77396 25.8834C4.56232 25.5395 4.35762 25.1923 4.15987 24.8416C3.95517 24.474 3.75741 24.1029 3.57006 23.7284C3.41393 23.4152 3.26128 23.102 3.1225 22.782C3.00454 22.5131 2.88311 22.2475 2.77209 21.9786C2.668 21.7266 2.57086 21.4713 2.47372 21.2194C2.4182 21.0764 2.36269 20.9334 2.31065 20.7904C2.27249 20.6849 2.23779 20.576 2.19963 20.4704C2.16493 20.3717 2.13024 20.2764 2.09555 20.1811C2.05738 20.0687 2.01922 19.9564 1.98105 19.8406C1.94289 19.7215 1.90473 19.5989 1.86656 19.4798C1.82493 19.347 1.78676 19.2142 1.74513 19.078C1.70697 18.9521 1.6688 18.8227 1.63064 18.6968C1.59248 18.5708 1.55778 18.4414 1.52309 18.3121C1.4988 18.2236 1.47451 18.1316 1.45023 18.0431C1.41206 17.8933 1.3739 17.7401 1.33227 17.5903C1.30798 17.4984 1.2837 17.4031 1.25941 17.3112C1.23859 17.2193 1.21778 17.1308 1.19696 17.0388C1.17267 16.9401 1.14839 16.838 1.12757 16.7393C1.10675 16.6473 1.08594 16.5588 1.06512 16.4669C1.03736 16.3375 1.00961 16.2082 0.981853 16.0788C0.961037 15.9665 0.94022 15.8575 0.919403 15.7452C0.905525 15.6635 0.888178 15.5818 0.870831 15.5001C0.829198 15.289 0.787564 15.0745 0.7494 14.8634C0.728584 14.7409 0.711236 14.6149 0.69042 14.489C0.669603 14.3528 0.645317 14.2132 0.621031 14.077C0.617561 14.06 0.614092 14.043 0.614092 14.0294C0.582867 13.8047 0.548172 13.5834 0.516947 13.3587C0.496131 13.1987 0.478784 13.0353 0.457967 12.8753C0.43715 12.7085 0.412864 12.5383 0.395517 12.3714C0.385109 12.2966 0.381639 12.2183 0.371231 12.1434C0.364292 12.0753 0.353884 12.0038 0.346945 11.9357C0.333067 11.7859 0.31572 11.6395 0.301842 11.4897C0.284495 11.3195 0.270617 11.1527 0.256739 10.9825C0.242861 10.8327 0.235922 10.6829 0.222045 10.5365C0.211636 10.4242 0.201228 10.3118 0.19082 10.1995C0.183881 10.1348 0.183881 10.0667 0.180411 10.002C0.170003 9.82839 0.156125 9.65818 0.142247 9.48456C0.138778 9.42328 0.138778 9.3586 0.135308 9.29391C0.128369 9.18838 0.1249 9.08284 0.117961 8.9773C0.114492 8.88879 0.104083 8.80028 0.100614 8.70836C0.093675 8.579 0.093675 8.44963 0.0832667 8.32026C0.0728584 8.17728 0.0797973 8.0343 0.0589806 7.89472C0.0555111 7.8811 0.0555111 7.86748 0.0555111 7.85387C0.0520417 7.68365 0.0520417 7.51343 0.0485722 7.34662C0.0451028 7.20364 0.0485722 7.06065 0.0381639 6.91767C0.031225 6.81213 0.0277556 6.70659 0.0277556 6.59765C0.0242861 6.45808 0.0104083 6.31849 0.00693889 6.17891C0.00346945 6.00529 0 5.82827 0 5.65124C0 5.53549 0.0451028 5.47421 0.156125 5.43336C0.19082 5.41974 0.225514 5.40953 0.263678 5.40272C0.43715 5.37889 0.610622 5.34826 0.784095 5.31421C0.967975 5.28017 1.15186 5.24953 1.33227 5.21208C1.43635 5.19165 1.53696 5.16442 1.63758 5.14059C1.70697 5.12357 1.77636 5.10654 1.84228 5.08612C2.13024 4.9908 2.39045 4.84781 2.60902 4.63674C2.72698 4.5244 2.82413 4.39844 2.91087 4.26227C3.01495 4.09886 3.13638 3.94565 3.25434 3.79586C3.42087 3.58479 3.61516 3.39755 3.80945 3.21372C4.04884 2.98903 4.31252 2.78818 4.59008 2.61115C4.73926 2.51583 4.89192 2.4205 5.04457 2.32858C5.2805 2.189 5.52683 2.05964 5.77663 1.94049C5.95704 1.85198 6.14092 1.76686 6.3248 1.68176C6.47746 1.61367 6.63358 1.54899 6.78971 1.4809C6.9493 1.41281 7.10543 1.34813 7.26502 1.28345C7.39339 1.23239 7.52176 1.18132 7.65013 1.13366C7.80625 1.07578 7.95891 1.01791 8.11503 0.96344C8.22606 0.925992 8.33708 0.888542 8.45157 0.854498C8.6181 0.800028 8.78464 0.748966 8.95464 0.6979C9.08995 0.657048 9.22873 0.622999 9.36403 0.585551C9.42302 0.568529 9.482 0.551512 9.54098 0.537895C9.68669 0.500447 9.83588 0.462993 9.9816 0.425545C10.0857 0.401715 10.1932 0.381295 10.3008 0.357464C10.3667 0.343847 10.4326 0.330221 10.4985 0.316603C10.62 0.292773 10.7449 0.265541 10.8663 0.245114C10.9183 0.234901 10.9739 0.231495 11.0259 0.221281C11.1751 0.197451 11.3243 0.170219 11.4769 0.149793C11.6504 0.125962 11.8273 0.108943 12.0008 0.0885167C12.1743 0.0646862 12.3512 0.0544715 12.5282 0.0442584C12.5837 0.040854 12.6357 0.044255 12.6912 0.0408507C12.7294 0.0408507 12.7676 0.0340436 12.7884 0C12.9653 0 13.1423 0 13.3157 0C13.3366 0.0442567 13.3817 0.0408507 13.4198 0.0408507C13.621 0.044255 13.8188 0.0510625 14.0166 0.0714887C14.1588 0.0851061 14.3011 0.0987253 14.4398 0.115747C14.5994 0.136173 14.7556 0.1566 14.9117 0.180431C15.0539 0.200857 15.1927 0.221284 15.335 0.245114C15.3488 0.248519 15.3627 0.251923 15.3731 0.255327C15.4841 0.275753 15.5917 0.299585 15.7027 0.320011C15.8137 0.340437 15.9213 0.360864 16.0323 0.384695C16.1919 0.418738 16.348 0.459586 16.5042 0.497034C16.6464 0.531078 16.7852 0.565131 16.9274 0.602579C17.0593 0.636622 17.1876 0.677473 17.316 0.718326C17.5276 0.783009 17.7427 0.847687 17.9544 0.915774C18.1036 0.96684 18.2528 1.02131 18.4019 1.07578C18.5789 1.14046 18.7558 1.20175 18.9328 1.27324C19.1756 1.37196 19.4185 1.47409 19.6579 1.57963C19.8938 1.68516 20.1297 1.7941 20.3622 1.90644C20.6536 2.04602 20.9416 2.19241 21.2261 2.34561C21.4204 2.45115 21.6181 2.55668 21.802 2.67583C22.0865 2.86307 22.3398 3.08095 22.5653 3.32947C22.7353 3.51671 22.8914 3.71756 23.0232 3.93544C23.051 3.9831 23.0857 4.03077 23.1204 4.07502C23.2314 4.23843 23.3702 4.38141 23.5124 4.52099C23.6235 4.62993 23.7484 4.72185 23.8767 4.80696C24.0641 4.93292 24.2688 5.03165 24.4804 5.10995C24.5949 5.1508 24.7129 5.18485 24.8274 5.21889C24.9002 5.23932 24.9765 5.25634 25.0529 5.27336C25.1708 5.29719 25.2923 5.32442 25.4102 5.34144C25.5663 5.36528 25.7259 5.37889 25.8821 5.40272C25.9619 5.41293 26.0417 5.42316 26.1145 5.45379C26.1249 5.48784 26.1319 5.51507 26.1423 5.5423C26.1527 6.18913 26.1527 6.83596 26.1527 7.47938ZM1.21431 7.72109H1.21778C1.21778 7.86748 1.21778 8.01387 1.21778 8.16026C1.21778 8.18749 1.22124 8.21473 1.22124 8.23856C1.23165 8.37814 1.249 8.51772 1.25247 8.65389C1.25941 8.84794 1.25941 9.03858 1.26288 9.23263C1.26288 9.27008 1.26635 9.30412 1.26982 9.34157C1.28023 9.44711 1.2941 9.55264 1.29757 9.65817C1.30451 9.80116 1.30451 9.94414 1.30798 10.0871C1.30798 10.1144 1.30798 10.1416 1.31145 10.1654C1.33227 10.322 1.34615 10.482 1.34961 10.642C1.34961 10.7169 1.35308 10.7952 1.36002 10.8701C1.37737 11.0369 1.39819 11.2072 1.39819 11.3774C1.39819 11.4182 1.40166 11.4557 1.4086 11.4965C1.42594 11.6157 1.44329 11.7348 1.44329 11.854C1.44329 11.9153 1.45023 11.9799 1.46064 12.0412C1.47798 12.1331 1.48145 12.2251 1.48839 12.317C1.49186 12.3612 1.48839 12.4055 1.49533 12.4463C1.51962 12.5791 1.5335 12.7153 1.54043 12.8515C1.54043 12.8855 1.55084 12.9162 1.55431 12.9502C1.56472 13.0421 1.57166 13.134 1.58554 13.2259C1.60635 13.3655 1.63064 13.5085 1.63758 13.6515C1.6688 13.74 1.67227 13.8353 1.67574 13.9272C1.67921 13.9647 1.68962 13.9987 1.69309 14.0362C1.70003 14.0873 1.71044 14.1417 1.71738 14.1928C1.73819 14.3324 1.75554 14.4685 1.77636 14.6081C1.77636 14.6149 1.77983 14.6217 1.7833 14.6285C1.7937 14.6864 1.80411 14.7477 1.81105 14.8056C1.83187 14.9349 1.84921 15.0609 1.87003 15.1903C1.87003 15.1971 1.8735 15.2039 1.8735 15.2107C1.88044 15.2549 1.89085 15.3026 1.89779 15.3469C1.9186 15.466 1.93942 15.5886 1.96371 15.7077C1.98452 15.8235 2.00881 15.9426 2.0331 16.0584C2.0331 16.0618 2.0331 16.0652 2.0331 16.0686C2.0331 16.1265 2.05391 16.1775 2.06432 16.2354C2.08514 16.3307 2.09555 16.4261 2.12677 16.518C2.13024 16.5282 2.13024 16.5384 2.13024 16.5486C2.13371 16.5963 2.14065 16.6405 2.158 16.6848C2.1684 16.712 2.1684 16.7427 2.17534 16.7733C2.18228 16.8039 2.18575 16.8312 2.19269 16.8618C2.21698 16.9639 2.24126 17.0695 2.26208 17.1716C2.2829 17.2669 2.30024 17.3588 2.32106 17.4542C2.32453 17.4644 2.328 17.4712 2.33147 17.4814C2.34188 17.5154 2.34881 17.5529 2.35575 17.5869C2.36269 17.6176 2.36963 17.6448 2.37657 17.6755C2.38351 17.7095 2.39392 17.7469 2.40086 17.781C2.4078 17.8082 2.41126 17.832 2.4182 17.8593C2.44249 17.9444 2.46678 18.0329 2.48759 18.118C2.50841 18.2031 2.52576 18.2848 2.54657 18.3699C2.57433 18.4721 2.60208 18.5742 2.62984 18.6763C2.65066 18.7478 2.668 18.8159 2.68882 18.8874C2.7027 18.9419 2.72005 18.9963 2.73392 19.0508C2.75821 19.1291 2.7825 19.2074 2.80678 19.2891C2.83107 19.364 2.85188 19.4423 2.8727 19.5172C2.89699 19.5955 2.92127 19.6738 2.94556 19.7555C2.98025 19.8713 3.01495 19.9836 3.05311 20.0994C3.09128 20.2117 3.13291 20.324 3.17107 20.4364C3.21618 20.5623 3.25781 20.6883 3.29944 20.8109C3.31679 20.8619 3.33414 20.9096 3.35148 20.9607C3.38618 21.0628 3.42087 21.1683 3.46251 21.2705C3.50067 21.3692 3.5423 21.4679 3.58047 21.5666C3.63598 21.7062 3.68455 21.8458 3.74006 21.9854C3.80598 22.1454 3.87537 22.302 3.94476 22.462C4.02803 22.656 4.10435 22.8501 4.19109 23.0373C4.2917 23.262 4.39926 23.4833 4.50681 23.7046C4.59008 23.8782 4.68028 24.0484 4.76702 24.222C4.85375 24.3888 4.94049 24.5523 5.0307 24.7157C5.10702 24.8552 5.18335 24.9982 5.26315 25.1344C5.42621 25.4204 5.59275 25.7063 5.77316 25.9855C5.89112 26.1659 6.00214 26.3464 6.1201 26.5234C6.22419 26.6834 6.33174 26.84 6.43929 26.9966C6.54684 27.1498 6.6544 27.303 6.76542 27.4528C6.92501 27.6638 7.08461 27.8749 7.2442 28.0826C7.38645 28.263 7.5287 28.4469 7.67788 28.6239C7.83054 28.8077 7.99013 28.9915 8.14973 29.172C8.30238 29.3456 8.46198 29.5158 8.6181 29.6826C8.67362 29.7439 8.73606 29.8018 8.79158 29.8631C8.90607 29.9822 9.01362 30.1048 9.12811 30.2205C9.2322 30.3295 9.34322 30.4316 9.45077 30.5371C9.49934 30.5848 9.54445 30.6325 9.59649 30.6767C9.72139 30.7925 9.84976 30.9082 9.97466 31.024C10.0822 31.1227 10.1898 31.2248 10.3008 31.3235C10.5853 31.5687 10.8698 31.8172 11.1612 32.0521C11.352 32.2053 11.5428 32.3619 11.7406 32.5049C11.758 32.5151 11.7718 32.5287 11.7892 32.5423C11.9731 32.6921 12.1604 32.8283 12.3582 32.961C12.5074 33.0598 12.6531 33.1585 12.8196 33.2334C12.8821 33.2606 12.948 33.2913 13.0208 33.2981C13.111 33.3049 13.1874 33.2708 13.2637 33.2334C13.4476 33.1415 13.621 33.0291 13.7876 32.9134C14.0686 32.7193 14.3358 32.5151 14.6064 32.3074C14.9498 32.0419 15.2829 31.7627 15.6125 31.4835C15.8033 31.3201 15.9941 31.1533 16.1815 30.9865C16.2786 30.9014 16.3758 30.8129 16.4729 30.7244C16.5562 30.6461 16.6395 30.5678 16.7227 30.4895C16.8546 30.3703 16.9864 30.2512 17.1148 30.1286C17.3576 29.8937 17.6005 29.6554 17.8295 29.4069C17.9995 29.2196 18.1695 29.0392 18.3326 28.8452C18.6032 28.5252 18.8703 28.2017 19.1201 27.8681C19.304 27.623 19.4913 27.3779 19.6683 27.126C19.866 26.8434 20.0638 26.5608 20.2442 26.2681C20.4212 25.9821 20.605 25.6995 20.775 25.4102C20.9312 25.1446 21.0804 24.8723 21.2295 24.5999C21.3475 24.3786 21.4551 24.1539 21.573 23.9361C21.6702 23.7522 21.7534 23.565 21.8436 23.3812C21.8887 23.2858 21.9338 23.1871 21.9755 23.0918C22.0449 22.9386 22.1108 22.7888 22.1767 22.6356C22.2322 22.5096 22.2843 22.3837 22.3363 22.2611C22.3745 22.1692 22.4126 22.0773 22.4473 21.9854C22.4889 21.8832 22.5271 21.7811 22.5687 21.679C22.6069 21.5802 22.6451 21.4815 22.6832 21.3828C22.7214 21.2875 22.7561 21.1922 22.7908 21.0934C22.8324 20.9743 22.8741 20.8551 22.9157 20.736C22.9539 20.6304 22.9886 20.5215 23.0232 20.416C23.0441 20.3547 23.0614 20.2968 23.0788 20.2355C23.1343 20.0721 23.1898 19.9087 23.2418 19.7453C23.2592 19.6908 23.2765 19.6364 23.2904 19.5853C23.3112 19.5104 23.3286 19.4389 23.3528 19.364C23.3806 19.2687 23.4084 19.1734 23.4396 19.078C23.4604 19.01 23.4777 18.9453 23.4951 18.8772C23.5194 18.7921 23.5437 18.707 23.5679 18.6185C23.5888 18.5368 23.6061 18.4585 23.6304 18.3767C23.6616 18.2712 23.6928 18.1657 23.7102 18.0601C23.7137 18.0431 23.7171 18.0295 23.7241 18.0125C23.7484 17.9172 23.7761 17.8218 23.8004 17.7231C23.8177 17.6618 23.8316 17.6006 23.8455 17.5393C23.8663 17.444 23.8837 17.352 23.9045 17.2567C23.9357 17.1308 23.9635 17.0048 23.9912 16.8788C24.0086 16.7937 24.0363 16.712 24.0398 16.6269C24.0398 16.6099 24.0502 16.5963 24.0537 16.5792C24.0606 16.5486 24.0675 16.5146 24.0745 16.4839C24.0953 16.375 24.1161 16.2694 24.1335 16.1605C24.1369 16.1469 24.1439 16.1367 24.1439 16.1231C24.1508 16.089 24.1578 16.0584 24.1647 16.0243C24.1751 15.9801 24.182 15.9324 24.1924 15.8882C24.1994 15.8541 24.2063 15.8235 24.2098 15.7894C24.2306 15.6669 24.2514 15.5477 24.2688 15.4252C24.2688 15.4184 24.2722 15.4115 24.2722 15.4047C24.2827 15.3537 24.2896 15.2992 24.3 15.2481C24.3035 15.2209 24.3035 15.1937 24.3139 15.1698C24.3382 15.0847 24.352 14.9996 24.3555 14.9145C24.3555 14.8975 24.3555 14.8805 24.3624 14.8669C24.3902 14.792 24.3833 14.7103 24.4006 14.632C24.4249 14.5162 24.4353 14.397 24.4527 14.2779C24.4561 14.2609 24.4631 14.2473 24.4665 14.2302C24.4735 14.1996 24.4769 14.1724 24.4804 14.1417C24.4908 14.06 24.5047 13.9783 24.5151 13.8966C24.522 13.8455 24.529 13.7911 24.5325 13.74C24.5498 13.58 24.5776 13.4166 24.5914 13.2566C24.6018 13.1647 24.6192 13.0728 24.6227 12.9808C24.6227 12.957 24.6227 12.9332 24.6296 12.9127C24.6643 12.7834 24.6643 12.6506 24.6782 12.5178C24.6782 12.5008 24.6816 12.4838 24.6851 12.4668C24.7094 12.3612 24.7163 12.2557 24.7198 12.1502C24.7233 12.1059 24.7233 12.0651 24.7302 12.0208C24.751 11.9153 24.7614 11.8097 24.7614 11.7042C24.7614 11.6361 24.7718 11.5646 24.7788 11.4965C24.7892 11.408 24.8065 11.3195 24.8031 11.2276C24.8031 11.1323 24.8065 11.0335 24.8239 10.9382C24.8412 10.8327 24.8482 10.7271 24.8482 10.6216C24.8482 10.5433 24.8516 10.4616 24.8621 10.3833C24.8829 10.2267 24.8933 10.0735 24.8967 9.91691C24.9002 9.81818 24.8967 9.71945 24.9141 9.61732C24.928 9.53562 24.9314 9.45392 24.9349 9.36881C24.9384 9.28711 24.9349 9.20199 24.9384 9.12029C24.9418 9.01816 24.9418 8.91262 24.9488 8.81049C24.9557 8.69815 24.9731 8.58581 24.9765 8.47346C24.9835 8.23856 24.9835 8.00025 24.9835 7.76535C24.9835 7.32619 24.9835 6.88702 24.9835 6.44786C24.9835 6.38999 24.9904 6.33552 24.9974 6.28105C25.0043 6.20275 25.0043 6.12785 24.9835 6.05296C24.9696 6.00529 24.9418 5.97125 24.8967 5.94742C24.8482 5.92359 24.7961 5.90998 24.7406 5.90998C24.6227 5.90998 24.5047 5.90657 24.3867 5.87593C24.3659 5.87253 24.3451 5.86913 24.3278 5.86913C24.2029 5.87253 24.0884 5.82487 23.9669 5.81125C23.9322 5.80784 23.8975 5.78742 23.8628 5.7772C23.7865 5.75678 23.7102 5.74316 23.6373 5.71933C23.4986 5.67167 23.3598 5.6172 23.2245 5.55251C22.9434 5.41974 22.6971 5.23931 22.482 5.02143C22.2947 4.8376 22.1385 4.62653 22.0067 4.40184C21.9061 4.23502 21.7916 4.07843 21.6632 3.93204C21.3544 3.58139 20.9832 3.30563 20.5773 3.07414C20.3934 2.9686 20.2061 2.86988 20.0187 2.77116C19.866 2.68945 19.7169 2.61115 19.5607 2.53625C19.2867 2.40348 19.0126 2.27752 18.7385 2.15156C18.5824 2.08007 18.4228 2.01539 18.2666 1.9507C18.1313 1.89623 17.9995 1.84176 17.8642 1.78729C17.7774 1.75325 17.6907 1.7158 17.6005 1.68516C17.4305 1.62729 17.264 1.56941 17.094 1.51154C17.0385 1.49452 16.9864 1.47409 16.9309 1.45707C16.8407 1.42983 16.7505 1.4026 16.6603 1.37877C16.584 1.35835 16.5111 1.33791 16.4348 1.31749C16.355 1.29706 16.2786 1.28004 16.1988 1.25962C16.1433 1.246 16.0878 1.23579 16.0323 1.21536C15.9803 1.19834 15.9282 1.18472 15.8762 1.17791C15.8588 1.1745 15.845 1.1711 15.8276 1.16769C15.7825 1.15748 15.7374 1.14728 15.6888 1.13366C15.668 1.13025 15.6472 1.12685 15.6299 1.12004C15.5848 1.09961 15.5396 1.0928 15.4911 1.0894C15.4703 1.0894 15.4494 1.086 15.4321 1.07919C15.3766 1.05536 15.3211 1.04855 15.2656 1.04514C15.2343 1.04174 15.2066 1.03153 15.1754 1.02472C15.1441 1.01791 15.1164 1.0111 15.0852 1.00429C14.9429 0.98046 14.7972 0.960037 14.6549 0.932802C14.589 0.919185 14.5231 0.908969 14.4537 0.908969C14.4294 0.908969 14.4051 0.908963 14.3843 0.902154C14.2698 0.871515 14.1519 0.868119 14.0339 0.857906C13.9819 0.854501 13.9333 0.844282 13.8813 0.840878C13.8223 0.834069 13.7598 0.82386 13.7008 0.82386C13.3955 0.820456 13.0902 0.817045 12.7849 0.817045C12.6912 0.817045 12.5941 0.820449 12.5004 0.827257C12.3651 0.837471 12.2298 0.851093 12.098 0.864711C12.0459 0.868115 11.9973 0.871515 11.9488 0.881728C11.8759 0.89875 11.8031 0.905565 11.7267 0.908969C11.6851 0.912374 11.6469 0.919175 11.6053 0.922579C11.5463 0.932792 11.4839 0.939607 11.4249 0.94982C11.3798 0.956629 11.3381 0.960029 11.293 0.966838C11.1716 0.990668 11.0467 1.01791 10.9253 1.03834C10.8628 1.04855 10.7969 1.05195 10.7379 1.07578C10.7171 1.08259 10.6928 1.08259 10.6685 1.08599C10.6408 1.0894 10.6165 1.09621 10.5887 1.09961C10.4881 1.12344 10.3841 1.14727 10.2834 1.1711C10.221 1.18472 10.1585 1.20175 10.0961 1.21877C10.0128 1.23919 9.93302 1.25621 9.84976 1.27664C9.77343 1.29706 9.6971 1.32429 9.6173 1.34812C9.54445 1.36855 9.46812 1.38898 9.39179 1.40941C9.33975 1.42303 9.28771 1.44004 9.23913 1.45707C9.12464 1.49451 9.01015 1.53537 8.89566 1.57622C8.77076 1.62048 8.64586 1.66133 8.52443 1.70559C8.39259 1.75325 8.26075 1.80431 8.12544 1.85197C8.03871 1.88602 7.9485 1.92007 7.86176 1.95411C7.7334 2.00858 7.60849 2.06304 7.48359 2.11751C7.29278 2.20262 7.10196 2.28432 6.91114 2.36943C6.81052 2.41709 6.71338 2.46817 6.61276 2.51583C6.21725 2.70307 5.83214 2.91073 5.46438 3.15244C5.14866 3.36011 4.85375 3.59161 4.58314 3.85715C4.31946 4.11588 4.08701 4.40184 3.89272 4.71504C3.79557 4.86824 3.68455 5.00781 3.55618 5.13718C3.44516 5.24612 3.32373 5.34144 3.19189 5.42315C3.05658 5.50826 2.9178 5.57975 2.76515 5.63082C2.70617 5.65124 2.64372 5.67507 2.58474 5.69209C2.49453 5.71592 2.40086 5.73635 2.31065 5.76018C2.26555 5.7704 2.21698 5.7772 2.17187 5.78742C2.05738 5.80784 1.93942 5.83508 1.82493 5.8521C1.75207 5.86231 1.67574 5.86912 1.60288 5.88274C1.55084 5.89295 1.49533 5.89636 1.43982 5.89977C1.41206 5.90317 1.38431 5.89976 1.36002 5.90316C1.25594 5.91678 1.14145 5.98828 1.14145 6.12445C1.14145 6.17212 1.13798 6.21636 1.14145 6.26402C1.15533 6.45467 1.14145 6.64872 1.15879 6.84277C1.17267 6.98235 1.16226 7.12193 1.17614 7.26151C1.21778 7.41471 1.21084 7.56789 1.21431 7.72109Z" fill="#97FD04"/>
<path d="M19.9354 20.5283C19.9354 19.3742 19.9354 18.2202 19.9354 17.0661C19.9354 17.0082 19.9458 16.9469 19.9493 16.8891C19.9528 16.855 19.9528 16.8244 19.9528 16.7903C19.9528 14.4175 19.9528 12.0412 19.9528 9.66839C19.9528 9.62073 19.9458 9.57648 19.9424 9.52882C19.9389 9.48456 19.9354 9.44371 19.9354 9.39945C19.9354 8.01728 19.9354 6.63171 19.9354 5.24954C19.9354 5.23251 19.9354 5.21549 19.9354 5.19847C19.9458 5.01804 19.9007 4.84782 19.8279 4.68782C19.7446 4.49377 19.6266 4.31674 19.4705 4.17376C19.2797 3.99673 19.0576 3.86737 18.8009 3.79247C18.6517 3.74821 18.5025 3.73459 18.3499 3.73118C18.2354 3.72778 18.1209 3.738 18.0064 3.71417C17.9682 3.70736 17.9266 3.71076 17.885 3.71076C16.4972 3.71076 15.1059 3.71076 13.7182 3.71076C13.6384 3.71076 13.5551 3.71076 13.4753 3.70736C13.4406 3.70736 13.4059 3.70055 13.3782 3.68693C13.2949 3.65289 13.2602 3.58139 13.2463 3.49969C13.2429 3.46905 13.2429 3.43842 13.2429 3.41118C13.2429 2.73712 13.2429 2.05965 13.2429 1.38558C13.2429 1.32771 13.2498 1.27324 13.2775 1.22217C13.3088 1.1643 13.3504 1.13026 13.4129 1.10983C13.4996 1.086 13.5898 1.0894 13.6765 1.09962C13.7529 1.10983 13.8327 1.10983 13.909 1.11664C13.9749 1.12344 14.0443 1.13025 14.1102 1.13706C14.1727 1.14387 14.2386 1.15068 14.301 1.16089C14.3114 1.16089 14.3219 1.1609 14.3323 1.1643C14.4884 1.18813 14.6445 1.21537 14.8041 1.2392C14.8388 1.24601 14.87 1.2494 14.9047 1.25281C14.929 1.25621 14.9533 1.25281 14.9741 1.25962C15.0504 1.28005 15.1268 1.29026 15.2031 1.30388C15.3453 1.33112 15.4876 1.36175 15.6298 1.39239C15.7166 1.41281 15.7998 1.43665 15.8831 1.46048C15.897 1.46388 15.9074 1.46729 15.9213 1.47069C16.0288 1.48431 16.1294 1.52176 16.2335 1.549C16.3098 1.57283 16.3896 1.58985 16.4694 1.61368C16.5458 1.63751 16.6221 1.66134 16.7019 1.68517C16.7539 1.70219 16.806 1.7158 16.858 1.73282C16.9656 1.76687 17.0697 1.79751 17.1772 1.83496C17.3333 1.88943 17.486 1.9473 17.6421 2.00177C17.8156 2.06645 17.9891 2.13113 18.1625 2.19922C18.277 2.24348 18.388 2.29114 18.4991 2.3388C18.6864 2.4205 18.8772 2.50222 19.0611 2.59073C19.3491 2.7269 19.6405 2.86308 19.9215 3.01287C20.3032 3.21713 20.664 3.45203 20.9971 3.72438C21.285 3.96268 21.5522 4.22142 21.7881 4.50739C21.9234 4.6742 22.0518 4.84442 22.1663 5.02485C22.3571 5.32783 22.6173 5.56274 22.9365 5.72955C23.0926 5.81126 23.2591 5.88615 23.4326 5.927C23.5159 5.94743 23.5922 5.98147 23.6755 5.99849C23.7692 6.02232 23.8698 6.03254 23.9634 6.05637C24.1092 6.09041 24.2583 6.09722 24.4041 6.12446C24.4457 6.13127 24.4908 6.13807 24.5359 6.14148C24.699 6.1585 24.7475 6.23679 24.7753 6.36956C24.7788 6.3968 24.7788 6.42404 24.7788 6.44787C24.7788 6.59766 24.7788 6.74745 24.7788 6.89725C24.7788 6.98235 24.7753 7.07087 24.7649 7.15598C24.7545 7.23428 24.7614 7.31598 24.7614 7.39428C24.7614 7.4862 24.7684 7.58152 24.7441 7.67344C24.7371 7.69727 24.7406 7.72791 24.7406 7.75174C24.7406 7.86409 24.7406 7.97643 24.7371 8.09218C24.7337 8.27942 24.7337 8.46325 24.7233 8.65049C24.7163 8.75943 24.7059 8.86837 24.7024 8.97731C24.699 9.10667 24.692 9.23604 24.6851 9.36541C24.6816 9.45733 24.6851 9.55265 24.6781 9.64457C24.6712 9.7467 24.6573 9.84883 24.6469 9.95096C24.633 10.0361 24.633 10.111 24.633 10.1859C24.633 10.3527 24.6192 10.5161 24.5949 10.6829C24.5879 10.7408 24.5879 10.802 24.5879 10.8633C24.5879 10.9859 24.5775 11.1084 24.5602 11.231C24.5532 11.2957 24.5498 11.3638 24.5428 11.4285C24.5324 11.5544 24.5186 11.6804 24.5081 11.8063C24.5047 11.8574 24.4977 11.9051 24.4943 11.9561C24.4908 12.0685 24.4804 12.1808 24.4596 12.2932C24.4492 12.3408 24.4492 12.3919 24.4492 12.443C24.4457 12.5349 24.4388 12.6268 24.4179 12.7187C24.4075 12.7596 24.4075 12.8038 24.4041 12.8481C24.3971 12.9264 24.3867 13.0081 24.3798 13.0864C24.3694 13.1715 24.3624 13.2566 24.352 13.3451C24.3451 13.3928 24.3381 13.437 24.3312 13.4847C24.3277 13.5187 24.3173 13.5494 24.3173 13.5834C24.3139 13.6719 24.3035 13.7638 24.2792 13.8489C24.2722 13.8728 24.2722 13.8932 24.2722 13.917C24.2688 14.0021 24.2618 14.0907 24.2341 14.1724C24.2341 14.1758 24.2306 14.1792 24.2306 14.1826C24.2306 14.3153 24.1924 14.4447 24.1785 14.5775C24.1716 14.632 24.1612 14.6898 24.1508 14.7443C24.1508 14.7511 24.1473 14.7579 24.1473 14.7647C24.1265 14.8975 24.1057 15.0337 24.0849 15.1664C24.0814 15.1937 24.0814 15.2209 24.0745 15.2447C24.0536 15.3162 24.0398 15.3877 24.0398 15.4592C24.0398 15.4796 24.0328 15.5001 24.0294 15.5171C24.0259 15.5341 24.0155 15.5477 24.0155 15.5647C23.9947 15.6873 23.9739 15.8133 23.9496 15.9358C23.9461 15.9562 23.9461 15.9767 23.9392 15.9937C23.9183 16.055 23.9079 16.1163 23.9045 16.1775C23.9045 16.198 23.901 16.2184 23.8906 16.2354C23.8698 16.2831 23.8628 16.3307 23.8594 16.3818C23.8594 16.3988 23.8594 16.4158 23.8524 16.4295C23.8247 16.4907 23.8247 16.5588 23.8108 16.6235C23.79 16.7086 23.7726 16.7903 23.7553 16.8754C23.7449 16.9333 23.7241 16.9912 23.7171 17.0491C23.7136 17.0729 23.7032 17.0933 23.6998 17.1171C23.6928 17.1376 23.6859 17.1546 23.6824 17.175C23.6789 17.2329 23.6616 17.2839 23.6443 17.3384C23.62 17.4371 23.5992 17.5393 23.5783 17.638C23.5645 17.7027 23.5471 17.7674 23.5298 17.8321C23.5089 17.9138 23.4812 17.9989 23.4604 18.0806C23.4396 18.1555 23.4222 18.227 23.4014 18.3019C23.3771 18.3972 23.3494 18.4925 23.3251 18.5912C23.3077 18.6593 23.2904 18.7274 23.2696 18.7921C23.2418 18.8908 23.2071 18.9895 23.1828 19.0883C23.1551 19.2108 23.11 19.33 23.0753 19.4525C23.051 19.5342 23.0232 19.6159 22.9955 19.6976C22.9816 19.7453 22.9677 19.793 22.9504 19.8406C22.9157 19.953 22.881 20.0619 22.8428 20.1743C22.8046 20.2866 22.763 20.3989 22.7249 20.5113C22.6867 20.6202 22.652 20.7326 22.6104 20.8415C22.5722 20.9436 22.5306 21.0458 22.4924 21.1479C22.4577 21.2432 22.423 21.342 22.3848 21.4373C22.3293 21.5769 22.2738 21.7164 22.2183 21.8526C22.1663 21.982 22.1142 22.1113 22.0622 22.2407C22.0136 22.3565 21.965 22.4722 21.913 22.5879C21.8297 22.7752 21.743 22.9658 21.6563 23.1497C21.5695 23.3301 21.4828 23.5071 21.3926 23.6876C21.3267 23.8203 21.2607 23.9565 21.1914 24.0893C21.0318 24.3923 20.8722 24.6952 20.6987 24.9914C20.5356 25.2706 20.376 25.5531 20.1991 25.8221C20.0568 26.04 19.9215 26.2613 19.7758 26.4791C19.6093 26.7276 19.4393 26.9762 19.2623 27.2179C19.016 27.5515 18.7697 27.8851 18.5025 28.2017C18.3013 28.4434 18.0966 28.6852 17.8919 28.9235C17.7948 29.0392 17.6907 29.1482 17.5866 29.2571C17.3854 29.4784 17.1772 29.6929 16.9656 29.9005C16.8927 29.972 16.8268 30.0469 16.7574 30.1184C16.6429 30.2273 16.5319 30.3363 16.4139 30.4418C16.2058 30.6291 16.0011 30.8129 15.7894 30.9967C15.6194 31.1465 15.4494 31.2929 15.276 31.4359C15.1198 31.5652 14.9602 31.6878 14.8006 31.8104C14.589 31.9704 14.3774 32.1304 14.1623 32.287C13.9957 32.4095 13.8257 32.5219 13.6592 32.641C13.562 32.7125 13.4614 32.7772 13.3504 32.8317C13.2637 32.8759 13.2359 32.8623 13.2359 32.7636C13.2359 32.7398 13.2359 32.7159 13.2359 32.6921C13.2359 30.3976 13.2359 28.103 13.2359 25.8085C13.2359 25.771 13.2324 25.7336 13.2359 25.6995C13.2463 25.6144 13.2775 25.5361 13.3504 25.4851C13.4059 25.4476 13.4684 25.4238 13.5412 25.4204C13.5829 25.4204 13.621 25.4204 13.6627 25.4204C15.0713 25.4204 16.4833 25.4204 17.8919 25.4204C18.0133 25.4204 18.1348 25.4204 18.2562 25.417C18.2874 25.417 18.3152 25.4136 18.3464 25.4102C18.4297 25.4 18.5129 25.3863 18.5962 25.3761C18.6066 25.3761 18.617 25.3761 18.6274 25.3727C18.794 25.3251 18.9674 25.2808 19.1201 25.1923C19.4081 25.0221 19.6301 24.794 19.7828 24.4978C19.8383 24.3888 19.873 24.2697 19.9111 24.154C19.9181 24.1301 19.9215 24.1029 19.9215 24.0757C19.925 24.0008 19.9285 23.9225 19.9285 23.8476C19.9354 22.748 19.9354 21.6381 19.9354 20.5283Z" fill="#97FD04"/>
<path d="M6.18256 8.59604C6.18256 9.67182 6.18256 10.751 6.18256 11.8268C6.18256 11.8779 6.17562 11.9255 6.16868 11.9766C6.16521 12.0038 6.16521 12.031 6.16521 12.0549C6.16521 12.0991 6.16521 12.14 6.16521 12.1842C6.16521 15.7929 6.16521 19.3981 6.16521 23.0067C6.16521 23.068 6.16174 23.1259 6.17909 23.1837C6.18603 23.211 6.18256 23.2416 6.18256 23.2723C6.18256 23.3982 6.18603 23.5242 6.18256 23.6501C6.17562 23.7999 6.19644 23.9497 6.21032 24.0961C6.21726 24.1744 6.24154 24.2527 6.26583 24.3276C6.30052 24.4297 6.34216 24.5319 6.39767 24.6272C6.56073 24.9131 6.79318 25.1208 7.09849 25.2536C7.22686 25.3081 7.36217 25.3353 7.49401 25.3796C7.50442 25.383 7.51483 25.383 7.52524 25.383C7.61891 25.3932 7.71259 25.4102 7.80973 25.4068C8.01096 25.4034 8.20872 25.4272 8.40995 25.4272C9.81507 25.4272 11.2237 25.4272 12.6288 25.4306C12.6739 25.4306 12.7155 25.4306 12.7606 25.434C12.7919 25.4374 12.8196 25.4442 12.8474 25.4545C12.9098 25.4749 12.9515 25.5191 12.9619 25.5838C12.9723 25.6383 12.9827 25.6962 12.9827 25.7506C12.9861 26.2511 12.9827 26.7481 12.9827 27.2485C12.9827 27.2656 12.9861 27.2826 12.9792 27.2996C12.9549 27.3915 12.9619 27.4834 12.9619 27.5788C12.9619 28.4639 12.9723 29.349 12.9584 30.2308C12.948 31.0716 12.9549 31.9125 12.948 32.7534C12.948 32.7806 12.948 32.8079 12.941 32.8317C12.9376 32.8623 12.9063 32.876 12.8786 32.8623C12.8092 32.8283 12.7363 32.7977 12.6704 32.7602C12.3825 32.6036 12.1153 32.4164 11.8586 32.2155C11.6678 32.0657 11.4735 31.9227 11.2861 31.7695C11.0433 31.5721 10.8004 31.3746 10.5645 31.1738C10.3667 31.007 10.1759 30.8299 9.98507 30.6597C9.8914 30.5746 9.79772 30.4861 9.70752 30.3976C9.63466 30.3295 9.55833 30.2648 9.48547 30.1933C9.32241 30.0299 9.16282 29.8597 9.00322 29.6929C8.90261 29.5873 8.80199 29.4852 8.70485 29.3797C8.54178 29.1992 8.38219 29.0188 8.22606 28.8384C8.09423 28.6852 7.96239 28.5354 7.83749 28.3788C7.53218 28.0009 7.23727 27.6162 6.95278 27.2247C6.64053 26.7924 6.34562 26.3464 6.06113 25.8936C5.83562 25.5396 5.62398 25.1753 5.41928 24.8076C5.30132 24.5965 5.1903 24.3787 5.07581 24.1642C5.00989 24.0382 4.9405 23.9123 4.87458 23.7829C4.75662 23.5412 4.64213 23.2961 4.52764 23.0544C4.43049 22.8433 4.33335 22.6322 4.23967 22.4178C4.16334 22.2475 4.09742 22.0739 4.02457 21.9037C3.9864 21.8152 3.95171 21.7267 3.91354 21.6348C3.85803 21.4918 3.80599 21.3488 3.75048 21.2058C3.73313 21.1547 3.71232 21.1071 3.69497 21.056C3.64293 20.913 3.58395 20.77 3.53537 20.6271C3.48333 20.4739 3.43476 20.3173 3.38272 20.1641C3.36884 20.1164 3.35149 20.0687 3.33415 20.0245C3.29251 19.9053 3.25435 19.7862 3.21272 19.667C3.19537 19.6092 3.17802 19.5513 3.16067 19.4968C3.12598 19.3743 3.09475 19.2551 3.05659 19.1325C3.0323 19.0577 3.00455 18.9827 2.98373 18.9044C2.96292 18.8364 2.94557 18.7649 2.92475 18.6934C2.90047 18.6049 2.87271 18.5164 2.84842 18.4244C2.82414 18.3359 2.80332 18.244 2.7825 18.1555C2.76516 18.084 2.74781 18.0125 2.73046 17.9444C2.69924 17.8287 2.66454 17.7163 2.64373 17.5972C2.62638 17.5053 2.59515 17.4167 2.57434 17.3282C2.5674 17.3044 2.56393 17.284 2.56046 17.2601C2.55352 17.2261 2.54311 17.1887 2.53617 17.1546C2.52923 17.124 2.5223 17.0967 2.51536 17.0661C2.50842 17.0321 2.49801 16.9946 2.49107 16.9606C2.4876 16.9469 2.48066 16.9367 2.48066 16.9231C2.45985 16.8176 2.43903 16.7154 2.42168 16.6099C2.41821 16.5827 2.41127 16.5588 2.40433 16.5316C2.40087 16.5146 2.39046 16.501 2.39046 16.484C2.38352 16.4022 2.35576 16.3205 2.34188 16.2388C2.31413 16.089 2.28984 15.9393 2.25168 15.7895C2.24474 15.7656 2.24474 15.7418 2.24127 15.7214C2.2378 15.7009 2.24474 15.6805 2.23433 15.6635C2.18576 15.5478 2.20658 15.4184 2.16147 15.3026C2.15453 15.2822 2.15453 15.2584 2.15453 15.2345C2.15106 15.2005 2.15107 15.1665 2.14066 15.1358C2.11637 15.0473 2.10249 14.9622 2.09555 14.8703C2.09555 14.8464 2.08515 14.826 2.07821 14.8022C2.07474 14.7886 2.0678 14.7784 2.0678 14.7647C2.0678 14.6286 2.01923 14.4958 2.01229 14.3596C2.01229 14.3256 2.00882 14.2915 1.99841 14.2609C1.97759 14.186 1.97412 14.1111 1.96371 14.0362C1.9429 13.8864 1.92208 13.7332 1.90126 13.5834C1.89086 13.4983 1.87351 13.4132 1.87004 13.3281C1.87004 13.3077 1.87004 13.2873 1.8631 13.2702C1.83535 13.1647 1.82494 13.0558 1.82494 12.9434C1.82494 12.9196 1.82494 12.8958 1.818 12.8753C1.79024 12.7664 1.7833 12.6575 1.77983 12.5485C1.77636 12.4906 1.76596 12.4362 1.75902 12.3817C1.75208 12.3136 1.7382 12.2421 1.73473 12.174C1.73126 12.0855 1.72085 11.997 1.70698 11.9051C1.69657 11.8336 1.68963 11.7587 1.68963 11.6872C1.68616 11.5783 1.67575 11.4693 1.6584 11.3604C1.65146 11.3127 1.648 11.2617 1.648 11.2106C1.648 11.054 1.63065 10.9008 1.6133 10.7442C1.59942 10.6216 1.60289 10.4991 1.59595 10.3765C1.58901 10.2812 1.57861 10.1859 1.57167 10.0872C1.56473 9.98843 1.55779 9.8897 1.55432 9.78757C1.55085 9.71267 1.55432 9.63438 1.55085 9.55948C1.54738 9.46416 1.54391 9.36543 1.52656 9.27011C1.50922 9.14415 1.51269 9.01818 1.50922 8.89222C1.50575 8.75945 1.51269 8.62669 1.50228 8.49392C1.49187 8.36455 1.49534 8.23518 1.48146 8.10581C1.46065 7.92538 1.46758 7.74836 1.46411 7.56793C1.45718 7.19345 1.46065 6.81557 1.46065 6.44109C1.46065 6.41385 1.46065 6.38661 1.46065 6.36278C1.46065 6.29129 1.49534 6.24023 1.55085 6.20618C1.60289 6.17554 1.6584 6.14831 1.72085 6.1415C1.76596 6.13469 1.81453 6.12448 1.85963 6.11767C1.90126 6.11086 1.94637 6.10405 1.99147 6.09724C2.02963 6.09043 2.07127 6.08022 2.10943 6.07341C2.11984 6.07 2.13025 6.0666 2.13719 6.0632C2.22739 6.05639 2.3176 6.03256 2.40433 6.01554C2.5223 5.99171 2.64026 5.96447 2.75822 5.93043C2.82067 5.91341 2.88312 5.89979 2.9421 5.87937C3.18843 5.80107 3.41741 5.68532 3.61864 5.52872C3.76436 5.41637 3.87885 5.27679 3.97599 5.1236C4.16334 4.81721 4.38192 4.53464 4.62825 4.27251C4.77397 4.11931 4.92662 3.97633 5.08969 3.83675C5.22499 3.721 5.36724 3.61205 5.51296 3.50992C5.68643 3.38396 5.86684 3.26482 6.05419 3.15588C6.34909 2.98566 6.64747 2.82565 6.95625 2.67926C7.19217 2.56691 7.43156 2.45798 7.67442 2.35585C7.83749 2.29117 7.99361 2.21627 8.15668 2.15159C8.39954 2.05626 8.6424 1.96776 8.88526 1.87924C9.04138 1.82477 9.19751 1.77711 9.3571 1.72604C9.47507 1.68859 9.59303 1.64775 9.71446 1.6137C9.79078 1.58987 9.87058 1.57284 9.95038 1.55242C10.0302 1.53199 10.1134 1.50476 10.1932 1.48433C10.2626 1.46731 10.3285 1.44688 10.3979 1.43326C10.4951 1.41283 10.5888 1.39241 10.6859 1.37198C10.783 1.35156 10.8837 1.32773 10.9808 1.3039C10.9947 1.3005 11.0086 1.2971 11.019 1.29369C11.1022 1.28688 11.1855 1.25964 11.2688 1.25283C11.411 1.23581 11.5463 1.18816 11.6886 1.18816C11.7267 1.18816 11.7684 1.16773 11.8065 1.16432C11.9592 1.15071 12.1084 1.13028 12.261 1.10985C12.3061 1.10304 12.3547 1.10645 12.4033 1.10305C12.4518 1.09964 12.497 1.09283 12.5455 1.08943C12.6323 1.08262 12.7225 1.07581 12.8092 1.09964C12.8682 1.11666 12.9133 1.1507 12.9376 1.20177C12.9619 1.25283 12.9827 1.3039 12.9827 1.36518C12.9827 1.51838 12.9966 1.67157 12.9792 1.82477C12.9515 2.11755 12.9723 2.41031 12.9653 2.69968C12.9653 2.72692 12.9653 2.75416 12.9688 2.77799C12.9966 2.98225 12.9792 3.18991 12.9827 3.39418C12.9827 3.45205 12.9653 3.50652 12.9376 3.55759C12.8959 3.63589 12.8231 3.68014 12.7363 3.69035C12.6878 3.69716 12.6427 3.69376 12.5941 3.69376C11.1612 3.69376 9.72833 3.69376 8.29198 3.69376C8.21913 3.69376 8.1428 3.69717 8.06994 3.70738C7.98667 3.7176 7.89994 3.71078 7.81667 3.71419C7.70218 3.721 7.58422 3.721 7.4732 3.74483C7.16094 3.8061 6.88339 3.93547 6.65441 4.15675C6.49481 4.31335 6.36991 4.49379 6.29705 4.70486C6.2693 4.78656 6.24501 4.86827 6.22073 4.95338C6.21726 4.967 6.21379 4.98061 6.21379 4.99082C6.20338 5.11679 6.18603 5.24275 6.18603 5.36871C6.18256 6.4547 6.18256 7.52707 6.18256 8.59604Z" fill="#97FD04"/>
<path d="M11.2167 6.18576C11.3104 6.11086 11.3693 6.02235 11.3971 5.91681C11.4075 5.88277 11.404 5.84191 11.3936 5.80787C11.3624 5.68531 11.3555 5.55595 11.3659 5.42999C11.3763 5.28701 11.4457 5.17126 11.5775 5.09636C11.6469 5.05891 11.7232 5.03168 11.7995 5.03168C12.0077 5.02487 12.2194 5.02487 12.431 5.03168C12.5004 5.03508 12.5732 5.0521 12.6357 5.08274C12.7641 5.14061 12.8369 5.24615 12.8612 5.38233C12.882 5.49467 12.8785 5.60702 12.8785 5.71936C12.8785 5.75341 12.8785 5.78744 12.8785 5.81808C12.882 5.89638 12.9028 5.97128 12.9549 6.02915C13.0034 6.08362 13.0416 6.14831 13.111 6.18916C13.2047 6.12447 13.2741 6.03937 13.3192 5.94065C13.3365 5.9032 13.3365 5.85554 13.3365 5.81469C13.34 5.72277 13.333 5.62744 13.34 5.53553C13.3435 5.4334 13.3677 5.33126 13.4198 5.24275C13.4718 5.15764 13.5447 5.09977 13.6418 5.06572C13.7147 5.04189 13.7841 5.02828 13.8604 5.02828C14.0443 5.02828 14.2282 5.02487 14.4086 5.03508C14.5335 5.04189 14.6549 5.07934 14.7451 5.17466C14.7833 5.21552 14.8076 5.26658 14.8284 5.32105C14.8839 5.48105 14.8631 5.64106 14.8353 5.80447C14.8145 5.92703 14.8596 6.07341 14.9463 6.15171C14.9984 6.19597 15.0227 6.19938 15.0816 6.16534C15.1441 6.12789 15.1892 6.08022 15.217 6.00873C15.2412 5.94745 15.2586 5.88958 15.2586 5.8249C15.2586 5.80107 15.2621 5.77723 15.269 5.75681C15.2863 5.68872 15.2933 5.62063 15.3037 5.55254C15.321 5.43339 15.3592 5.32105 15.4321 5.21892C15.4876 5.14403 15.5639 5.09977 15.6541 5.06913C15.7721 5.03168 15.8935 5.02487 16.0149 5.02487C16.1433 5.02487 16.2717 5.02487 16.4 5.03168C16.4972 5.03508 16.5874 5.06232 16.6707 5.10998C16.7782 5.17466 16.8407 5.26998 16.8441 5.39595C16.8476 5.53212 16.8407 5.6683 16.8164 5.80107C16.7851 5.96107 16.7782 6.12447 16.7574 6.28448C16.7504 6.35597 16.74 6.43087 16.7296 6.50236C16.7227 6.55002 16.7123 6.59428 16.7123 6.64194C16.7088 6.73727 16.7019 6.83259 16.6741 6.92791C16.6707 6.93812 16.6672 6.94833 16.6672 6.95855C16.6776 7.13557 16.6151 7.30579 16.6151 7.48282C16.6151 7.49984 16.6151 7.51686 16.6082 7.53389C16.577 7.64623 16.5735 7.76197 16.5631 7.88113C16.5631 7.90155 16.5596 7.92198 16.5562 7.939C16.5319 8.03433 16.5284 8.12965 16.518 8.22497C16.5006 8.37476 16.4798 8.52115 16.4625 8.67094C16.4521 8.76626 16.4382 8.86158 16.4278 8.95691C16.4174 9.06585 16.3896 9.17138 16.3341 9.27011C16.2925 9.34841 16.2266 9.40629 16.1468 9.45054C16.0878 9.48118 16.0253 9.50501 15.9559 9.50841C15.8727 9.51522 15.7859 9.52203 15.7027 9.52544C15.5986 9.52884 15.491 9.53565 15.3904 9.55608C15.2204 9.59012 15.1545 9.64459 15.1025 9.82502C15.0851 9.87949 15.0747 9.93396 15.0643 9.98843C15.0643 9.99183 15.0608 9.99524 15.0608 9.99864C15.0435 10.1348 15.0227 10.2676 15.0088 10.4038C15.0018 10.4753 14.9984 10.5502 14.981 10.6216C14.9741 10.6489 14.9672 10.6795 14.9672 10.7101C14.9637 10.8225 14.9498 10.9348 14.9394 11.0472C14.922 11.2004 14.922 11.3536 14.9116 11.5034C14.9047 11.6225 14.8908 11.7417 14.8839 11.8608C14.8804 11.8915 14.8769 11.9187 14.8769 11.9493C14.8769 12.3374 14.8735 12.7289 14.8769 13.117C14.8769 13.2328 14.8943 13.3485 14.9047 13.4643C14.9082 13.5188 14.9116 13.5698 14.9116 13.6243C14.9151 13.8183 14.9325 14.009 14.9567 14.1996C14.9602 14.2337 14.9637 14.2643 14.9637 14.2984C14.9637 14.3767 14.9706 14.4516 14.9914 14.5264C14.9949 14.5401 14.9984 14.5537 14.9984 14.5673C15.0088 14.7137 15.0296 14.8567 15.0504 15.0031C15.0643 15.1018 15.0921 15.1971 15.1233 15.2924C15.1545 15.398 15.1996 15.4967 15.2378 15.5988C15.2759 15.7009 15.3141 15.8031 15.3488 15.9086C15.3765 15.9835 15.4008 16.0584 15.4251 16.1367C15.4459 16.2014 15.4633 16.2695 15.4876 16.3376C15.5119 16.4023 15.5223 16.4669 15.5223 16.5316C15.5188 16.6133 15.5327 16.6916 15.55 16.7699C15.5535 16.7903 15.5604 16.8074 15.5604 16.8278C15.5882 17.0423 15.6923 17.2159 15.8345 17.3725C15.949 17.4985 16.0947 17.5972 16.23 17.6993C16.3966 17.8253 16.5457 17.9717 16.688 18.1215C16.8025 18.2474 16.8823 18.3938 16.9309 18.5538C16.9864 18.7513 17.0107 18.9521 16.9586 19.153C16.9517 19.1802 16.9517 19.2074 16.9447 19.2313C16.9343 19.2755 16.9239 19.3232 16.91 19.3674C16.8927 19.4287 16.8788 19.49 16.8476 19.5479C16.7713 19.7011 16.6602 19.8168 16.4972 19.8781C16.4174 19.9087 16.3306 19.9326 16.2404 19.9326C16.2335 19.9326 16.2266 19.9326 16.2196 19.9326C15.5847 19.9326 14.9533 19.936 14.3184 19.936C13.9471 19.936 13.5724 19.9326 13.2012 19.9326C13.1561 19.9326 13.1145 19.9258 13.0694 19.9224C13.0243 19.919 12.9826 19.9155 12.9375 19.9155C11.9869 19.9155 11.0328 19.9155 10.0822 19.9155C9.98503 19.9155 9.89135 19.9087 9.80115 19.8917C9.64849 19.8611 9.52706 19.7794 9.44379 19.65C9.37094 19.5377 9.31889 19.4151 9.30155 19.2789C9.30155 19.2687 9.29808 19.2585 9.29461 19.2483C9.24604 19.1121 9.25644 18.9725 9.26338 18.833C9.26685 18.7751 9.28767 18.7172 9.29808 18.6559C9.31195 18.5572 9.35012 18.4653 9.39175 18.3734C9.44726 18.244 9.52706 18.1283 9.62074 18.0227C9.74564 17.8763 9.90176 17.764 10.0579 17.6516C10.1758 17.5665 10.3007 17.4916 10.4014 17.3861C10.4846 17.301 10.5471 17.2057 10.5991 17.1001C10.6303 17.0355 10.6442 16.9674 10.672 16.9061C10.6789 16.8857 10.6824 16.8618 10.6859 16.838C10.6928 16.7971 10.6997 16.7529 10.7067 16.712C10.7171 16.6508 10.731 16.5895 10.731 16.5248C10.731 16.4703 10.7414 16.4193 10.7587 16.3682C10.7865 16.2899 10.8038 16.2082 10.8281 16.1299C10.842 16.0788 10.8593 16.0278 10.8767 15.9801C10.9322 15.8235 10.9773 15.6635 11.0363 15.5103C11.0814 15.3946 11.1057 15.2686 11.1473 15.1494C11.1889 15.0337 11.1889 14.9077 11.2236 14.7886C11.2306 14.7613 11.2306 14.7307 11.2306 14.7001C11.234 14.6115 11.2375 14.5196 11.2583 14.4311C11.2687 14.3698 11.2757 14.3052 11.2791 14.2439C11.2826 14.1349 11.2895 14.026 11.3069 13.9171C11.3173 13.8558 11.3208 13.7911 11.3242 13.7298C11.3312 13.6141 11.3208 13.4949 11.3416 13.3826C11.3624 13.2532 11.3451 13.1238 11.3693 12.9945C11.3763 12.9604 11.3728 12.9298 11.3728 12.8958C11.3728 12.6268 11.3763 12.3579 11.3693 12.0889C11.3659 11.9459 11.3624 11.803 11.3451 11.6634C11.3312 11.5612 11.3312 11.4591 11.3312 11.3536C11.3312 11.2549 11.3138 11.1561 11.3034 11.0574C11.293 10.9553 11.293 10.8497 11.2791 10.751C11.2653 10.6523 11.241 10.557 11.2375 10.4548C11.2375 10.414 11.2271 10.3765 11.2202 10.3357C11.2097 10.2778 11.2028 10.2165 11.1924 10.1586C11.1855 10.1212 11.1855 10.0838 11.175 10.0497C11.1577 9.99184 11.1508 9.93396 11.1404 9.87268C11.1265 9.80119 11.1057 9.7331 11.0606 9.67182C11.0155 9.60714 10.9495 9.5765 10.8732 9.56288C10.7518 9.54586 10.6338 9.53224 10.5089 9.53224C10.4118 9.53224 10.3112 9.52543 10.2175 9.50841C10.103 9.48798 9.99891 9.43692 9.93992 9.32798C9.90176 9.25989 9.87401 9.19181 9.86013 9.11351C9.83584 9.00117 9.81503 8.89223 9.81503 8.77988C9.81503 8.75946 9.80809 8.74243 9.80462 8.722C9.79768 8.68796 9.7838 8.65733 9.78727 8.62328C9.79074 8.43604 9.72829 8.25561 9.72829 8.06837C9.72829 8.04795 9.72482 8.02752 9.72135 8.01049C9.71788 7.98666 9.71094 7.96624 9.70747 7.94241C9.69359 7.75517 9.64849 7.56792 9.64155 7.38068C9.64155 7.37047 9.64155 7.36026 9.64155 7.35005C9.59992 7.19685 9.60686 7.04025 9.57563 6.88706C9.57216 6.87685 9.56869 6.86663 9.56869 6.85642C9.55829 6.67258 9.50971 6.49556 9.50277 6.31172C9.50277 6.28449 9.50277 6.25725 9.49584 6.23342C9.46808 6.1415 9.46114 6.04277 9.45767 5.94745C9.45767 5.91341 9.45073 5.88277 9.44379 5.84872C9.40563 5.68872 9.41257 5.52531 9.41951 5.3619C9.42298 5.24275 9.54094 5.1202 9.6589 5.07934C9.76298 5.0453 9.87054 5.03508 9.97809 5.03508C10.1169 5.03508 10.2556 5.03168 10.3944 5.04189C10.4742 5.0487 10.5575 5.06231 10.6303 5.09295C10.7726 5.15423 10.8732 5.25977 10.9114 5.41296C10.9183 5.43679 10.9252 5.45722 10.9322 5.48106C10.9391 5.5151 10.953 5.55255 10.953 5.58659C10.9565 5.70915 10.9877 5.83171 11.005 5.95086C11.0155 6.01895 11.0571 6.07341 11.1161 6.11426C11.1299 6.13128 11.1681 6.15512 11.2167 6.18576ZM15.0955 17.4474C15.0921 17.4372 15.0921 17.427 15.0886 17.4236C15.0435 17.3895 14.9984 17.3691 14.9394 17.3691C14.7139 17.3691 14.4849 17.3589 14.2594 17.3589C13.3192 17.3589 12.3755 17.3589 11.4353 17.3589C11.3624 17.3589 11.2861 17.3657 11.2132 17.3725C11.1716 17.3759 11.1369 17.3929 11.1195 17.4406C11.1889 17.4916 11.2583 17.5189 11.3451 17.5189C12.5143 17.5155 13.6835 17.5189 14.8492 17.5189C14.8665 17.5189 14.8839 17.5189 14.9012 17.5189C14.9741 17.5155 15.0331 17.4814 15.0955 17.4474ZM11.6191 9.50501C11.6573 9.56629 11.7128 9.58331 11.7753 9.59012C11.81 9.59353 11.8412 9.59352 11.8759 9.59352C12.7016 9.59352 13.5273 9.59352 14.3531 9.59352C14.3808 9.59352 14.4086 9.59692 14.4329 9.59352C14.471 9.58671 14.5127 9.5765 14.5508 9.56629C14.5682 9.55948 14.5786 9.54246 14.5959 9.52544C14.5473 9.46416 14.4884 9.44033 14.4155 9.44033C14.3149 9.44033 14.2108 9.44033 14.1102 9.44033C14.0651 9.44033 14.0235 9.43012 13.9784 9.43012C13.8743 9.42671 13.7702 9.42671 13.6626 9.42671C13.6002 9.42671 13.5343 9.44033 13.4718 9.44033C13.0832 9.44033 12.6947 9.44033 12.3026 9.44033C12.1396 9.44033 11.9765 9.44033 11.8134 9.44033C11.7579 9.44033 11.7059 9.44373 11.6538 9.47097C11.6469 9.47437 11.6365 9.4914 11.6191 9.50501ZM11.6191 16.1776C11.6781 16.2491 11.7024 16.2627 11.7822 16.2627C12.143 16.2661 12.5073 16.2627 12.8681 16.2695C13.2116 16.2763 13.5586 16.2627 13.9055 16.2627C14.0651 16.2627 14.2247 16.2627 14.3843 16.2627C14.412 16.2627 14.4398 16.2627 14.4641 16.2593C14.5196 16.2525 14.5612 16.2218 14.5959 16.1776C14.5612 16.1333 14.5196 16.1163 14.471 16.1129C14.4363 16.1129 14.4016 16.1129 14.3704 16.1129C13.5308 16.1129 12.6912 16.1129 11.8516 16.1129C11.8238 16.1129 11.7961 16.1129 11.7718 16.1129C11.7128 16.1129 11.6642 16.1299 11.6191 16.1776Z" fill="#97FD04"/>
<path d="M13.1214 21.4203C11.9522 21.4203 10.783 21.4203 9.61382 21.4237C9.49239 21.4237 9.37443 21.4101 9.26688 21.3658C9.083 21.2909 8.93728 21.1683 8.88177 20.9709C8.86789 20.9198 8.84707 20.8688 8.85054 20.8143C8.85054 20.5556 8.96157 20.3547 9.20096 20.2287C9.31545 20.1709 9.44035 20.1402 9.57219 20.1334C9.61729 20.1334 9.65892 20.1334 9.70403 20.1334C11.9939 20.1334 14.2872 20.1334 16.577 20.1334C16.629 20.1334 16.6776 20.1334 16.7297 20.1368C16.858 20.1504 16.9795 20.1879 17.0905 20.2594C17.2154 20.3411 17.2882 20.4568 17.3437 20.5862C17.3507 20.6781 17.3819 20.7666 17.3611 20.862C17.3472 20.9266 17.3437 20.9913 17.3125 21.0526C17.2362 21.2126 17.1078 21.3113 16.9448 21.376C16.8511 21.4135 16.7539 21.4237 16.6568 21.4237C16.119 21.4237 15.5778 21.4237 15.04 21.4271C14.3947 21.4237 13.7598 21.4237 13.1214 21.4203Z" fill="#97FD04"/>
<path d="M13.6072 23.6705C13.6349 23.5956 13.6661 23.5241 13.6939 23.4492C13.7529 23.2858 13.8153 23.1258 13.8708 22.9624C13.9055 22.8671 13.9402 22.7684 13.9749 22.6696C13.9853 22.639 14.0027 22.6084 14.0166 22.5777C14.0339 22.5301 14.0686 22.5096 14.1172 22.5096C14.2004 22.5096 14.2872 22.5062 14.3704 22.5096C14.4398 22.513 14.4572 22.5335 14.4606 22.6015C14.4606 22.6254 14.4606 22.6492 14.4606 22.6696C14.4606 23.0816 14.4606 23.4935 14.4606 23.9054C14.4606 23.9361 14.4606 23.9667 14.4572 23.9939C14.4537 24.0416 14.4329 24.0586 14.3878 24.0654C14.3531 24.0688 14.3184 24.0688 14.2872 24.0688C14.2178 24.0654 14.197 24.0484 14.1831 23.9837C14.1761 23.9531 14.1761 23.9258 14.1761 23.8952C14.1761 23.616 14.1761 23.3369 14.1761 23.0577C14.1761 23.0271 14.1831 22.993 14.1553 22.9522C14.131 23.0067 14.1137 23.0509 14.0964 23.0952C14.0547 23.2075 14.0131 23.3199 13.9715 23.4322C13.9159 23.5786 13.8639 23.725 13.8084 23.8714C13.7945 23.9088 13.7806 23.9463 13.7633 23.9837C13.739 24.0416 13.7008 24.0756 13.6314 24.0722C13.6037 24.0688 13.5759 24.0722 13.5516 24.0722C13.4857 24.0756 13.451 24.0382 13.4302 23.9837C13.3782 23.8475 13.3296 23.708 13.281 23.5718C13.2498 23.4867 13.2186 23.405 13.1874 23.3199C13.1492 23.2177 13.111 23.1156 13.0763 23.0101C13.0694 22.993 13.0625 22.9726 13.0555 22.9556C13.0278 22.9556 13.0382 22.9726 13.0347 22.9862C13.0347 22.9965 13.0347 23.0067 13.0347 23.0169C13.0347 23.3028 13.0347 23.5888 13.0347 23.8748C13.0347 23.9122 13.0347 23.9497 13.0278 23.9837C13.0139 24.045 12.9896 24.0688 12.9237 24.0722C12.8855 24.0722 12.8474 24.0722 12.8127 24.0688C12.7676 24.0654 12.7467 24.0416 12.7398 23.9973C12.7363 23.9701 12.7363 23.9429 12.7363 23.919C12.7363 23.5003 12.7363 23.0816 12.7363 22.6628C12.7363 22.5232 12.7502 22.5096 12.8925 22.5062C12.9549 22.5062 13.0139 22.5096 13.0763 22.5062C13.1492 22.5028 13.1908 22.5403 13.2151 22.6015C13.2498 22.7003 13.2845 22.8024 13.3157 22.9045C13.3331 22.959 13.3539 23.0101 13.3712 23.0645C13.4163 23.1871 13.458 23.3097 13.5031 23.4288C13.5308 23.5105 13.5621 23.5888 13.5933 23.6705C13.5968 23.6739 13.6002 23.6705 13.6072 23.6705Z" fill="#97FD04"/>
<path d="M7.88603 22.3769C7.90685 22.3769 7.92767 22.3769 7.94848 22.3769C8.07338 22.3701 8.17747 22.4246 8.27808 22.4858C8.33706 22.5233 8.34053 22.5914 8.28849 22.639C8.21216 22.7173 8.12543 22.748 8.02134 22.7003C7.97277 22.6799 7.9242 22.6731 7.87216 22.6799C7.8444 22.6833 7.82011 22.6901 7.79583 22.7037C7.69521 22.7582 7.67787 22.8773 7.7646 22.9522C7.80971 22.9931 7.86175 23.0237 7.91379 23.0509C7.98318 23.0884 8.05604 23.1122 8.12196 23.1497C8.25379 23.2246 8.344 23.3301 8.36482 23.4867C8.37176 23.5582 8.37523 23.6263 8.36135 23.6944C8.33706 23.8476 8.25033 23.9531 8.11155 24.0212C8.03869 24.0552 7.96583 24.0723 7.88603 24.0689C7.83399 24.0689 7.78542 24.0689 7.73338 24.0654C7.61542 24.0586 7.50786 24.0246 7.41419 23.9497C7.32398 23.8782 7.31358 23.8169 7.41072 23.7284C7.48358 23.6603 7.52868 23.6569 7.62236 23.7012C7.66746 23.7216 7.71603 23.742 7.76113 23.7591C7.83746 23.7863 7.95195 23.7488 7.99706 23.6842C8.04563 23.6161 8.03175 23.5003 7.96583 23.4493C7.93808 23.4254 7.90338 23.4118 7.86869 23.3948C7.77848 23.3505 7.68481 23.3097 7.5946 23.262C7.48011 23.2042 7.40725 23.1054 7.37603 22.9863C7.34133 22.8501 7.3448 22.7105 7.42113 22.5812C7.46276 22.5097 7.52521 22.4586 7.59807 22.4245C7.71256 22.3769 7.7195 22.3769 7.88603 22.3769Z" fill="#97FD04"/>
<path d="M9.34667 23.456C9.25646 23.439 8.94074 23.439 8.84706 23.4526C8.82278 23.4731 8.82972 23.5003 8.82972 23.5275C8.82972 23.6603 8.82972 23.7931 8.82972 23.9258C8.82972 23.9565 8.82625 23.9871 8.82278 24.0144C8.81584 24.0484 8.79502 24.0688 8.76033 24.0722C8.72216 24.0756 8.68747 24.0756 8.64931 24.0722C8.6042 24.0688 8.57645 24.0416 8.56951 23.9973C8.56604 23.9701 8.56604 23.9429 8.56604 23.919C8.56604 23.5343 8.56604 23.1496 8.56604 22.7649C8.56604 22.7343 8.56604 22.7037 8.57298 22.6764C8.57992 22.6356 8.60767 22.6118 8.64931 22.6084C8.79849 22.6015 8.83319 22.5981 8.82972 22.7616C8.82972 22.8637 8.82972 22.9658 8.82972 23.0713C8.82972 23.1054 8.83319 23.136 8.83319 23.1735C8.91992 23.2041 9.00319 23.1871 9.08646 23.1905C9.16625 23.1939 9.24952 23.1973 9.32585 23.1871C9.3536 23.1633 9.35013 23.136 9.35013 23.1122C9.35013 22.9999 9.35013 22.8875 9.35013 22.7752C9.35013 22.7411 9.3536 22.7071 9.36054 22.6764C9.37095 22.639 9.39871 22.6152 9.44034 22.6152C9.46463 22.6152 9.48891 22.6152 9.50973 22.6152C9.57912 22.6186 9.59993 22.6322 9.61728 22.6969C9.62422 22.7241 9.62769 22.7547 9.62769 22.7854C9.62769 23.1599 9.62769 23.5343 9.62769 23.9122C9.62769 23.9497 9.62075 23.9837 9.61381 24.0212C9.6034 24.0654 9.57565 24.0893 9.52708 24.0893C9.50279 24.0893 9.4785 24.0893 9.45769 24.0893C9.3883 24.0858 9.36054 24.0586 9.35013 23.9939C9.34667 23.9667 9.34667 23.9395 9.34667 23.9156C9.34667 23.8033 9.34667 23.6909 9.34667 23.5786C9.3536 23.5275 9.35013 23.4935 9.34667 23.456Z" fill="#97FD04"/>
<path d="M15.6923 24.0756C15.5883 24.0756 15.564 24.0586 15.5258 23.9633C15.5085 23.9122 15.4911 23.8646 15.4738 23.8135C15.4634 23.7795 15.4425 23.7624 15.4078 23.7624C15.2864 23.7624 15.165 23.7624 15.0436 23.7624C15.0019 23.7624 14.9846 23.7897 14.9742 23.8237C14.9533 23.885 14.9325 23.9429 14.9152 24.0041C14.9013 24.0518 14.8666 24.0756 14.818 24.0756C14.7799 24.0756 14.7417 24.079 14.707 24.0722C14.6688 24.0688 14.6446 24.0416 14.648 24.0041C14.6515 23.9599 14.6619 23.9122 14.6758 23.868C14.6966 23.8033 14.7209 23.742 14.7417 23.6807C14.7938 23.5173 14.8423 23.3505 14.8944 23.1871C14.9325 23.0679 14.9776 22.9488 15.0158 22.8296C15.0331 22.7752 15.047 22.7207 15.0713 22.6696C15.0921 22.6254 15.1268 22.6049 15.1754 22.6049C15.1858 22.6049 15.1962 22.6049 15.2066 22.6049C15.3454 22.6015 15.3731 22.6254 15.4148 22.7581C15.4564 22.8909 15.5015 23.0237 15.5466 23.1531C15.5848 23.2654 15.616 23.3811 15.6542 23.4935C15.7027 23.6433 15.7548 23.7965 15.8068 23.9463C15.8415 24.045 15.8207 24.0722 15.7166 24.0756C15.7062 24.0756 15.6993 24.0756 15.6923 24.0756ZM15.3766 23.4901C15.3454 23.3845 15.3142 23.2824 15.2829 23.1769C15.2691 23.136 15.2587 23.0952 15.2448 23.0543C15.2413 23.0475 15.2309 23.0373 15.2205 23.0407C15.2136 23.0407 15.1997 23.0509 15.1997 23.0577C15.1858 23.0986 15.1754 23.1394 15.165 23.1803C15.1407 23.2824 15.0921 23.3777 15.0817 23.4833C15.1476 23.5037 15.276 23.5071 15.3766 23.4901Z" fill="#97FD04"/>
<path d="M10.1239 22.8671C10.11 22.976 10.1169 23.0714 10.1169 23.1701C10.1412 23.1769 10.162 23.1837 10.1794 23.1837C10.2522 23.1837 10.3286 23.1837 10.4014 23.1837C10.4292 23.1837 10.4569 23.1837 10.4812 23.1837C10.5437 23.1871 10.568 23.2075 10.5749 23.2654C10.5784 23.2892 10.5784 23.3131 10.5784 23.3335C10.5714 23.4322 10.5298 23.439 10.4639 23.439C10.3876 23.439 10.3078 23.439 10.2314 23.439C10.1967 23.439 10.1655 23.4424 10.1308 23.4424C10.0961 23.5037 10.1169 23.565 10.1135 23.6229C10.11 23.6773 10.1135 23.7352 10.1169 23.7931C10.1412 23.7999 10.1586 23.8067 10.1794 23.8101C10.2071 23.8135 10.2349 23.8101 10.2592 23.8101C10.3598 23.8101 10.4639 23.8101 10.5645 23.8101C10.6825 23.8101 10.7033 23.8305 10.6998 23.9429C10.6998 23.9633 10.6998 23.9837 10.6929 24.0007C10.6859 24.0348 10.6651 24.0552 10.6339 24.0586C10.6061 24.062 10.5784 24.0654 10.5541 24.0654C10.3667 24.0654 10.1829 24.0654 9.99551 24.0654C9.9851 24.0654 9.97469 24.0654 9.96428 24.0654C9.88796 24.062 9.8602 24.0348 9.85326 23.9633C9.84979 23.9361 9.84979 23.9088 9.84979 23.885C9.84979 23.5139 9.84979 23.1394 9.84979 22.7684C9.84979 22.7343 9.84979 22.7003 9.85673 22.6696C9.86367 22.622 9.89143 22.6015 9.94 22.5947C9.96081 22.5913 9.98163 22.5913 10.0024 22.5913C10.1829 22.5913 10.3598 22.5913 10.5402 22.5913C10.5472 22.5913 10.5541 22.5913 10.561 22.5913C10.5992 22.5913 10.6374 22.5879 10.6616 22.622C10.6894 22.6628 10.6998 22.7071 10.6894 22.7547C10.6755 22.8194 10.6443 22.8467 10.5784 22.8501C10.4674 22.8535 10.3563 22.8501 10.2418 22.8501C10.2037 22.8603 10.169 22.8637 10.1239 22.8671Z" fill="#97FD04"/>
<path d="M17.1286 23.4492C17.1251 23.5752 17.1251 23.6875 17.1286 23.7897C17.1633 23.8203 17.1945 23.8135 17.2223 23.8135C17.3333 23.8135 17.4443 23.8135 17.5588 23.8135C17.5866 23.8135 17.6143 23.8135 17.6386 23.8169C17.6768 23.8203 17.701 23.8441 17.7045 23.8816C17.708 23.9224 17.708 23.9599 17.7045 24.0007C17.701 24.0382 17.6768 24.062 17.6386 24.0688C17.6143 24.0722 17.59 24.0722 17.5692 24.0722C17.3784 24.0722 17.191 24.0722 17.0002 24.0722C16.8823 24.0722 16.858 24.0484 16.858 23.9293C16.858 23.5309 16.858 23.1326 16.858 22.7343C16.858 22.7309 16.858 22.7275 16.858 22.7241C16.8614 22.6254 16.8857 22.5981 16.9863 22.5981C17.1147 22.5981 17.2431 22.5981 17.3714 22.5981C17.4408 22.5981 17.5137 22.5981 17.5831 22.5981C17.649 22.6015 17.6768 22.622 17.6872 22.6833C17.6906 22.7105 17.6941 22.7377 17.6906 22.7616C17.6802 22.8262 17.6525 22.8535 17.5831 22.8535C17.4721 22.8569 17.361 22.8535 17.2465 22.8535C17.2084 22.8535 17.1737 22.8467 17.139 22.8671C17.1182 22.9386 17.1182 23.0748 17.139 23.1667C17.1598 23.1701 17.1806 23.1769 17.2049 23.1769C17.2812 23.1769 17.361 23.1769 17.4374 23.1769C17.4617 23.1769 17.4859 23.1769 17.5068 23.1769C17.5519 23.1803 17.5761 23.2041 17.5831 23.245C17.59 23.2756 17.5935 23.3131 17.59 23.3437C17.5761 23.4288 17.5415 23.4356 17.4825 23.4356C17.4027 23.4356 17.3194 23.4356 17.2396 23.4356C17.2084 23.4458 17.1772 23.4492 17.1286 23.4492Z" fill="#97FD04"/>
<path d="M18.2214 24.0756C18.1312 24.0825 18.0375 24.0654 17.9508 24.028C17.8988 24.0042 17.8502 23.9735 17.812 23.9327C17.7912 23.9088 17.7912 23.885 17.8086 23.8612C17.8606 23.7761 17.9335 23.759 18.0271 23.8067C18.0931 23.8407 18.1624 23.868 18.2388 23.868C18.2978 23.868 18.3429 23.8441 18.3845 23.8067C18.3984 23.7965 18.4088 23.7829 18.4157 23.7659C18.4504 23.691 18.4296 23.5922 18.3637 23.5412C18.3151 23.5037 18.2596 23.4765 18.2076 23.4492C18.152 23.4186 18.0896 23.3982 18.0341 23.3675C17.9022 23.2892 17.8329 23.1735 17.8259 23.0237C17.8224 22.9624 17.8259 22.8977 17.8537 22.8399C17.9231 22.6867 18.0445 22.6152 18.2145 22.6084C18.3186 22.605 18.4192 22.605 18.5129 22.656C18.5545 22.6799 18.5927 22.7071 18.6274 22.7377C18.6586 22.765 18.6551 22.7956 18.6308 22.8263C18.6135 22.8467 18.5961 22.8671 18.5753 22.8841C18.5337 22.9182 18.492 22.9182 18.4435 22.8909C18.4122 22.8739 18.381 22.8535 18.3463 22.8365C18.2769 22.8024 18.1833 22.8194 18.1312 22.8773C18.0722 22.942 18.0722 23.0237 18.1243 23.0986C18.152 23.136 18.1867 23.1599 18.2249 23.1803C18.2943 23.2177 18.3706 23.2518 18.44 23.2927C18.4851 23.3165 18.5302 23.3437 18.5649 23.3744C18.6725 23.4663 18.7072 23.5888 18.6933 23.725C18.6829 23.8339 18.6412 23.9293 18.5476 23.9974C18.4782 24.045 18.4018 24.0825 18.3151 24.0825C18.2839 24.0757 18.2561 24.0756 18.2214 24.0756Z" fill="#97FD04"/>
<path d="M16.3515 22.8705C16.3272 22.9113 16.3342 22.9488 16.3342 22.9828C16.3342 23.2892 16.3342 23.5956 16.3342 23.8986C16.3342 23.9327 16.3342 23.9667 16.3307 23.9973C16.3237 24.0416 16.3029 24.0654 16.2578 24.0688C16.1017 24.0824 16.0635 24.079 16.0635 23.9156C16.0635 23.6092 16.0635 23.3028 16.0635 22.9999C16.0635 22.959 16.0601 22.9216 16.0601 22.8773C16.0323 22.8705 16.0115 22.8637 15.9872 22.8637C15.9352 22.8603 15.8866 22.8637 15.8346 22.8637C15.8103 22.8637 15.786 22.8637 15.7652 22.8569C15.7409 22.8535 15.7166 22.8399 15.7166 22.8126C15.7131 22.7616 15.7131 22.7071 15.7166 22.656C15.7166 22.6322 15.7409 22.6152 15.7652 22.6118C15.7929 22.6084 15.8207 22.6049 15.845 22.6049C16.0705 22.6049 16.2995 22.6049 16.525 22.6049C16.5284 22.6049 16.5319 22.6049 16.5354 22.6049C16.6395 22.6084 16.6637 22.6322 16.6637 22.7377C16.6637 22.7547 16.6638 22.7718 16.6603 22.7888C16.6499 22.8467 16.6325 22.8637 16.5735 22.8671C16.5215 22.8705 16.4729 22.8671 16.4209 22.8671C16.4001 22.8637 16.3758 22.8671 16.3515 22.8705Z" fill="#97FD04"/>
<path d="M12.0911 23.7965C12.1188 23.8237 12.1535 23.8169 12.1813 23.8169C12.2853 23.8169 12.3894 23.8169 12.497 23.8169C12.6149 23.8169 12.6288 23.834 12.6288 23.9531C12.6288 23.9633 12.6288 23.9735 12.6288 23.9838C12.6254 24.0518 12.6045 24.0723 12.5386 24.0757C12.5178 24.0757 12.497 24.0757 12.4762 24.0757C12.3131 24.0757 12.15 24.0757 11.9904 24.0757C11.9662 24.0757 11.9419 24.0757 11.9211 24.0723C11.8621 24.0655 11.8343 24.0416 11.8274 23.9872C11.8239 23.9599 11.8239 23.9327 11.8239 23.9089C11.8239 23.531 11.8239 23.1531 11.8239 22.7752C11.8239 22.7412 11.8239 22.7071 11.8309 22.6765C11.8378 22.6356 11.8655 22.6118 11.9072 22.6084C11.9453 22.605 11.98 22.605 12.0182 22.6084C12.0598 22.6118 12.0772 22.6288 12.0841 22.6697C12.0876 22.7037 12.0876 22.7344 12.0876 22.7684C12.0876 23.0782 12.0876 23.3846 12.0876 23.6944C12.0841 23.7284 12.0807 23.7659 12.0911 23.7965Z" fill="#97FD04"/>
<path d="M11.1716 23.8101C11.2132 23.8135 11.2445 23.8169 11.2722 23.8169C11.3624 23.8169 11.4561 23.8169 11.5463 23.8169C11.5706 23.8169 11.5949 23.8169 11.6157 23.8169C11.6885 23.8203 11.7059 23.8373 11.7094 23.9088C11.7094 23.9463 11.7094 23.9803 11.7059 24.0178C11.7024 24.045 11.6816 24.0654 11.6538 24.0688C11.6296 24.0722 11.6053 24.0756 11.5845 24.0756C11.404 24.0756 11.2271 24.0756 11.0467 24.0756C11.0363 24.0756 11.0259 24.0756 11.0155 24.0756C10.9426 24.0688 10.9114 24.045 10.9079 23.9701C10.9044 23.9429 10.9079 23.9156 10.9079 23.8918C10.9079 23.5241 10.9079 23.1565 10.9079 22.7854C10.9079 22.7479 10.9079 22.7105 10.9149 22.6764C10.9218 22.6288 10.9495 22.6084 10.9981 22.6015C11.0363 22.5981 11.071 22.6015 11.1091 22.6015C11.1404 22.605 11.1612 22.622 11.1647 22.6492C11.1716 22.6867 11.1716 22.7207 11.1716 22.7581C11.1716 23.0679 11.1716 23.3743 11.1716 23.6841C11.1681 23.725 11.1716 23.759 11.1716 23.8101Z" fill="#97FD04"/>
<path d="M38.1527 2.74963V31.2803" stroke="#FF3797" stroke-width="2" stroke-linejoin="round"/>
<path d="M66.8892 25.4214V22.4378V22.4285H65.3464L65.2814 22.4192L65.142 22.4006H65.0119L64.826 22.3634L64.7145 22.3448L64.5286 22.3262L64.3892 22.289L64.2312 22.2519L64.0825 22.2054L63.971 22.1682L63.8037 22.1124L63.6922 22.0567L63.5156 21.9916L63.3762 21.9265L63.1903 21.8429L63.0602 21.7778L62.9022 21.6849L62.7721 21.6105L62.6513 21.5176L62.5119 21.4246L62.4189 21.341L62.3167 21.2759L62.2238 21.2108L62.1401 21.1272L62.0472 21.0435L61.9728 20.9692L61.9078 20.8948L61.8241 20.8204L61.7405 20.7461L61.6476 20.6253L61.5639 20.5416L61.4896 20.4394L61.4152 20.3464L61.3409 20.2442L61.2665 20.1419L61.1457 19.956L61.0342 19.8073L60.9505 19.6214L60.8111 19.3333L60.7089 19.1102L60.6346 18.915L60.5602 18.6826L60.5045 18.4874L60.458 18.2923L60.4115 18.0506L60.3743 17.874L60.3465 17.6137V17.3999V2.98364H66.8985V0H59.287H59.2312L59.1011 0.0185897L59.0082 0.0371794L58.8874 0.0650639L58.7572 0.111538L58.6086 0.167307L58.4691 0.223076L58.3483 0.297435L58.2275 0.371794L58.0881 0.483332L57.9766 0.585575L57.8651 0.706408L57.7535 0.845831L57.6699 0.966664L57.577 1.12468L57.5119 1.28269L57.4468 1.4407L57.4097 1.58942L57.3818 1.71955L57.3725 1.83108V17.3999V17.5951L57.4004 17.9576L57.4468 18.3108L57.484 18.664L57.5119 18.7849L57.5398 18.9708L57.577 19.1288L57.6234 19.2868L57.6606 19.4169L57.7164 19.5935L57.7628 19.7237L57.8 19.8631L57.8558 20.0118L57.9022 20.1605L57.9673 20.2906L58.0138 20.4208L58.0788 20.5788L58.1532 20.7089L58.2089 20.8297L58.2926 20.9878L58.3576 21.1086L58.4227 21.2294L58.5156 21.3688L58.6086 21.5176L58.6922 21.6756L58.7851 21.8057L58.8688 21.9358L58.9803 22.0845L59.0825 22.2054L59.1755 22.3355L59.3242 22.5028L59.445 22.6515L59.6401 22.8467L59.8353 23.0605L60.0119 23.2278L60.1606 23.3672L60.3372 23.516L60.5974 23.7297L61.09 24.0736L61.1271 24.1108L61.1643 24.1294L61.2015 24.148L61.2386 24.1852L61.2758 24.2038L61.313 24.2224L61.3316 24.241L61.3688 24.2595L61.4059 24.2781L61.4431 24.2967L61.4803 24.3153L61.4989 24.3339L61.5175 24.3525H61.5453L61.5546 24.3711L61.5918 24.3897L61.629 24.4083L61.6662 24.4268L61.7033 24.4454L61.7405 24.464L61.7777 24.4826L61.8149 24.5012L61.852 24.5198L61.8892 24.5384L61.9264 24.557L61.9636 24.5756L62.0007 24.5942L62.0379 24.6127L62.0751 24.6313L62.1123 24.6499L62.1494 24.6685L62.1866 24.6871L62.2052 24.7057H62.2331L62.2609 24.7243H62.2702L62.2981 24.7429L62.3353 24.7522L62.3725 24.7708L62.4096 24.7801L62.4468 24.7986L62.5026 24.8172L62.5398 24.8358L62.5955 24.8544L62.6327 24.873L62.6792 24.8916L62.7349 24.9102L62.7814 24.9288L62.8464 24.9474L62.8929 24.966L62.9487 24.9845L63.0044 25.0031L63.0695 25.0217L63.1531 25.0403L63.1996 25.0589L63.2461 25.0775L63.3018 25.0961L63.3762 25.1147L63.4319 25.1333L63.5063 25.1518L63.5899 25.1704L63.655 25.189L63.7293 25.2076L63.813 25.2262L63.8966 25.2448L63.9896 25.2634L64.0918 25.282L64.194 25.3006L64.3055 25.3192L64.352 25.3284L64.4357 25.3377H64.4914L64.5658 25.3563H64.6401L64.7052 25.3749H64.7888L64.8632 25.3935L64.9468 25.4028H65.0119L65.049 25.4121L65.0676 25.4214H65.0862H65.1048H65.1234H65.142H65.1606H65.1792H65.1977H65.2256H65.2628H65.2907H65.3278H66.8892Z" fill="#97FD04"/>
<path d="M60.3271 2.98146H66.8793V0.0185761H59.2218L59.0925 0.0370252L59.0002 0.0554925L58.8798 0.0832296L58.7503 0.129488L58.6017 0.185162L58.4632 0.24051L58.2228 0.388375L58.0839 0.499414L57.973 0.60102L57.8621 0.721112L57.7508 0.860142L57.6676 0.980216L57.5752 1.13731L57.4456 1.45177L57.4086 1.59979L57.3809 1.72901L57.3717 1.83938V17.5913L57.3995 17.9526L57.446 18.3055L57.446 18.3058L57.4831 18.6581L57.5108 18.7784L57.5109 18.7787L57.5388 18.9645L57.5758 19.1217L57.6222 19.2794L57.6222 19.2794L57.6593 19.4092L57.715 19.5854L57.7615 19.7154L57.7616 19.7158L57.7617 19.7161L57.7988 19.8551L57.8544 20.0032L57.8544 20.0035L57.8545 20.0037L57.9008 20.1516L57.9658 20.2815L57.9659 20.282L58.0123 20.4119L58.077 20.5688L58.1511 20.6985L58.1513 20.6988L58.1515 20.6992L58.2072 20.8198L58.2906 20.9773L58.4206 21.2184L58.5133 21.3575L58.5134 21.3576L58.6063 21.5062L58.6065 21.5065L58.6067 21.5068L58.69 21.664L58.7826 21.7936L58.7827 21.7938L58.7829 21.794L58.8663 21.9238L58.9775 22.0719L59.0795 22.1924L59.0798 22.1927L59.08 22.193L59.1727 22.3227L59.321 22.4895L59.3212 22.4896L59.3213 22.4898L59.4418 22.638L59.6368 22.8329L59.6369 22.8331L59.8318 23.0464L60.0082 23.2133L60.1566 23.3524L60.333 23.5009L60.593 23.7143L61.0852 24.0577L61.0859 24.0582L61.1226 24.0949L61.1969 24.132L61.2341 24.1692L61.3085 24.2063L61.3271 24.2249L61.4758 24.2992L61.5113 24.3347H61.541L61.5436 24.3398L61.5515 24.3556L62.1821 24.6707L62.199 24.6876H62.2259L62.2538 24.7062H62.263L62.2919 24.7254L62.3275 24.7344L62.3285 24.7346L62.3657 24.7532L62.4019 24.7622L62.4029 24.7625L62.4404 24.7812L62.4955 24.7996L62.4961 24.7998L62.4967 24.8001L62.5333 24.8183L62.5885 24.8367L62.5891 24.8369L62.5897 24.8372L62.6266 24.8557L62.6721 24.8739L62.7279 24.8924L62.7281 24.8925L62.7284 24.8926L62.7744 24.911L62.839 24.9295L62.8395 24.9296L62.8399 24.9298L62.8859 24.9482L62.9974 24.9853L63.0617 25.0037L63.1452 25.0222L63.1459 25.0224L63.1466 25.0227L63.239 25.0596L63.2945 25.0781L63.3684 25.0966L63.3688 25.0967L63.3691 25.0968L63.4246 25.1153L63.4985 25.1337L63.582 25.1523L63.5825 25.1524L63.6472 25.1709L63.7215 25.1894L63.8887 25.2266L63.9812 25.2451L64.1857 25.2822L64.2971 25.3008L64.2973 25.3008L64.2974 25.3008L64.3434 25.31L64.4262 25.3192H64.4826L64.4837 25.3195L64.557 25.3378H64.6315L64.6327 25.3382L64.6965 25.3564H64.78L64.7811 25.3567L64.8549 25.3751L64.9374 25.3842H65.0031L65.0042 25.3845L65.0413 25.3938L65.0423 25.3941L65.0599 25.4028H66.87V22.4306H65.3358L65.3352 22.4306L65.2702 22.4213L65.1313 22.4028H65.001L65.0001 22.4026L64.8144 22.3655L64.7032 22.3469L64.5177 22.3284L64.517 22.3283L64.5162 22.3282L64.3768 22.291L64.2191 22.2539L64.2188 22.2538L64.2185 22.2538L64.0698 22.2073L63.7908 22.1144L63.7902 22.1142L63.7896 22.1139L63.6784 22.0583L63.5024 21.9935L63.502 21.9934L63.5017 21.9932L63.3623 21.9282L63.1765 21.8447L63.1763 21.8446L63.1762 21.8445L63.0458 21.7794L63.0455 21.7792L62.8876 21.6864L62.7575 21.6121L62.7569 21.6118L62.7564 21.6114L62.6359 21.5187L62.4967 21.426L62.4962 21.4256L62.4956 21.4252L62.4032 21.342L62.3017 21.2775L62.3015 21.2774L62.2084 21.2122L62.2078 21.2118L62.1239 21.1279L62.0308 21.0442L62.0306 21.044L61.956 20.9695L61.9558 20.9692L61.8912 20.8954L61.7237 20.7466L61.6305 20.6256L61.5468 20.5419L61.4723 20.4395L61.3979 20.3466L61.3978 20.3465L61.3977 20.3463L61.2488 20.1418L61.2487 20.1416L61.1281 19.9562L61.0167 19.8077L61.0161 19.8069L61.0157 19.8059L60.9321 19.6204L60.7927 19.3325L60.7926 19.3323L60.6904 19.1094L60.6903 19.1091L60.6902 19.1088L60.6158 18.9138L60.6157 18.9133L60.5413 18.6811L60.5413 18.681L60.4855 18.4858L60.4854 18.4854L60.4389 18.2903L60.4388 18.2901L60.4388 18.2899L60.3923 18.0484L60.3552 17.8721L60.3551 17.8717L60.3551 17.8712L60.3271 17.6106V2.98146ZM60.3457 17.6097L60.3735 17.8688L60.4106 18.0448L60.4106 18.0449L60.457 18.2863L60.5034 18.481L60.559 18.6754L60.6334 18.9076L60.7074 19.1019L60.8094 19.3244L60.9489 19.6123L60.949 19.6126L61.0322 19.7974L61.1431 19.9452L61.1433 19.9454L61.1435 19.9457L61.2641 20.1312L61.4125 20.335L61.4868 20.4279L61.4869 20.4281L61.4871 20.4283L61.561 20.5298L61.6441 20.6129L61.6446 20.6133L61.6449 20.6138L61.7373 20.7339L61.9039 20.8819L61.9044 20.8823L61.9696 20.9567L62.0434 21.0305L62.1365 21.1143L62.1367 21.1145L62.2198 21.1975L62.3117 21.2618L62.4139 21.3268L62.4146 21.3272L62.4152 21.3277L62.5076 21.4109L62.6464 21.5034L62.6469 21.5038L62.7672 21.5962L62.8968 21.6702L62.8969 21.6703L63.0546 21.763L63.1843 21.8278L63.37 21.9113L63.3701 21.9114L63.5093 21.9763L63.6854 22.0411L63.6859 22.0413L63.6863 22.0415L63.7973 22.0969L64.0753 22.1896L64.2239 22.236L64.3813 22.273L64.3815 22.273L64.3816 22.2731L64.5204 22.31L64.7054 22.3285L64.7057 22.3285L64.706 22.3286L64.8176 22.3472L64.8177 22.3472L64.8179 22.3472L65.0028 22.3842H65.1326L65.1333 22.3843L65.2727 22.4029L65.2727 22.4029L65.3372 22.4121H66.8886V25.4214H65.0555L65.0359 25.4116L65.0008 25.4028H64.9363L64.9358 25.4028L64.8522 25.3935L64.8516 25.3934L64.851 25.3933L64.7777 25.375H64.6939L64.6927 25.3746L64.6289 25.3564H64.5547L64.5536 25.3561L64.4803 25.3378H64.4252L64.4247 25.3377L64.341 25.3285L64.3406 25.3284L64.3402 25.3283L64.2939 25.3191L64.1825 25.3005L64.1824 25.3005L63.9779 25.2634L63.9778 25.2633L63.8848 25.2447L63.8846 25.2447L63.7173 25.2076L63.7171 25.2075L63.6426 25.1889L63.6425 25.1888L63.5778 25.1704L63.4943 25.1518L63.4941 25.1518L63.4197 25.1332L63.4194 25.1331L63.419 25.133L63.3636 25.1145L63.2896 25.096L63.2893 25.096L63.2889 25.0958L63.2331 25.0773L63.2329 25.0772L63.2326 25.0771L63.1404 25.0402L63.0575 25.0218L63.0569 25.0216L62.9919 25.0031L62.9917 25.003L62.9915 25.003L62.88 24.9658L62.8797 24.9657L62.8795 24.9656L62.8335 24.9472L62.7688 24.9288L62.7684 24.9286L62.7679 24.9285L62.722 24.9101L62.6662 24.8915L62.666 24.8914L62.6657 24.8913L62.6189 24.8726L62.6185 24.8724L62.582 24.8542L62.5268 24.8358L62.5262 24.8356L62.5256 24.8353L62.489 24.817L62.4339 24.7986L62.4333 24.7984L62.4327 24.7981L62.3964 24.78L62.3602 24.771L62.3592 24.7707L62.3221 24.7521L62.2859 24.7431L62.2843 24.7427L62.283 24.7418L62.2574 24.7248H62.2481L62.2202 24.7062H62.1913L62.1711 24.686L61.5404 24.3709L61.5377 24.3695L61.5363 24.3667L61.5296 24.3533H61.5036L61.4648 24.3145L61.3161 24.2402L61.2975 24.2216L61.2231 24.1844L61.1859 24.1473L61.1116 24.1101L61.0739 24.0725L60.582 23.7293L60.5817 23.7291L60.5814 23.7289L60.3212 23.5152L60.3211 23.5152L60.1445 23.3666L60.1442 23.3662L59.9955 23.2269L59.9954 23.2269L59.8189 23.0597L59.8186 23.0595L59.8184 23.0592L59.6235 22.8459L59.428 22.6505L59.4277 22.6501L59.3071 22.5018L59.1584 22.3346L59.1581 22.3343L59.1578 22.3339L59.0651 22.2041L58.9631 22.0837L58.9629 22.0835L58.8512 21.9347L58.851 21.9344L58.8509 21.9341L58.7675 21.8045L58.6742 21.6739L58.6739 21.6734L58.5904 21.5157L58.4978 21.3677L58.4049 21.2283L58.4046 21.228L58.4044 21.2276L58.2743 20.9861L58.2742 20.9861L58.1906 20.8282L58.1905 20.8279L58.1904 20.8277L58.1348 20.7073L58.0606 20.5776L58.0603 20.5771L58.0601 20.5766L57.9951 20.4187L57.995 20.4185L57.9949 20.4183L57.9486 20.2888L57.8838 20.1592L57.8835 20.1586L57.8833 20.1578L57.8368 20.0092L57.781 19.8607L57.7809 19.8602L57.7438 19.7212L57.6975 19.5916L57.6974 19.5913L57.6416 19.4148L57.6416 19.4146L57.6044 19.2846L57.5579 19.1267L57.5579 19.1265L57.5578 19.1262L57.5206 18.9683L57.5205 18.968L57.5205 18.9676L57.4927 18.7823L57.4649 18.6618L57.4647 18.6612L57.4647 18.6607L57.4275 18.308L57.381 17.955L57.381 17.9545L57.3531 17.5923L57.3531 17.5919V1.83865L57.3531 1.83825L57.3624 1.7268L57.3625 1.72622L57.3626 1.72564L57.3905 1.5956L57.3905 1.59544L57.4279 1.44603L57.4281 1.4454L57.5583 1.1296L57.5585 1.12901L57.5588 1.12843L57.6518 0.970529L57.6519 0.970239L57.6521 0.969966L57.7358 0.849222L57.736 0.84895L57.7362 0.848696L57.8477 0.709375L57.8479 0.709121L57.9597 0.58814L57.9599 0.58785L57.9602 0.587596L58.0717 0.485428L58.072 0.48521L58.0722 0.48501L58.2121 0.373191L58.2125 0.372901L58.4542 0.224292L58.4549 0.223875L58.4556 0.223584L58.595 0.167856L58.5952 0.167765L58.744 0.112001L58.8747 0.0653792L58.8752 0.0652522L58.996 0.037388L58.9961 0.0373518L58.9963 0.0373336L59.0892 0.0187575L59.0895 0.0187031L59.2198 9.07036e-05L59.2205 0H66.8979V3.00004H60.3457V17.6097Z" fill="#97FD04"/>
<path d="M74.6849 0.00105858V2.9847V2.994H76.2277L76.2927 3.00329L76.4321 3.02188H76.5622L76.7481 3.05906L76.8596 3.07765L77.0455 3.09624L77.1849 3.13342L77.3429 3.1706L77.4916 3.21707L77.6031 3.25425L77.7704 3.31002L77.8819 3.36579L78.0585 3.43085L78.1979 3.49592L78.3838 3.57957L78.5139 3.64464L78.6719 3.73759L78.802 3.81194L78.9228 3.90489L79.0622 3.99784L79.1552 4.0815L79.2574 4.14656L79.3503 4.21162L79.434 4.29528L79.5269 4.37893L79.6012 4.45329L79.6663 4.52765L79.7499 4.60201L79.8336 4.67636L79.9265 4.7972L80.0102 4.88085L80.0845 4.9831L80.1589 5.07604L80.2332 5.17829L80.3076 5.28053L80.4284 5.46643L80.5399 5.61514L80.6235 5.80104L80.763 6.08918L80.8652 6.31226L80.9395 6.50745L81.0139 6.73982L81.0696 6.93501L81.1161 7.1302L81.1626 7.37187L81.1998 7.54847L81.2276 7.80873V8.02251V22.4388H74.6756V25.4225H82.2871H82.3429L82.473 25.4039L82.5659 25.3853L82.6867 25.3574L82.8168 25.3109L82.9655 25.2551L83.105 25.1994L83.2258 25.125L83.3466 25.0507L83.486 24.9391L83.5975 24.8369L83.709 24.716L83.8206 24.5766L83.9042 24.4558L83.9971 24.2978L84.0622 24.1398L84.1273 23.9818L84.1644 23.833L84.1923 23.7029L84.2016 23.5914V8.02251V7.82732L84.1737 7.46482L84.1273 7.11161L84.0901 6.75841L84.0622 6.63758L84.0343 6.45168L83.9971 6.29367L83.9507 6.13565L83.9135 6.00553L83.8577 5.82893L83.8113 5.6988L83.7741 5.55937L83.7183 5.41066L83.6719 5.26194L83.6068 5.13181L83.5603 5.00168L83.4953 4.84367L83.4209 4.71354L83.3652 4.59271L83.2815 4.4347L83.2165 4.31387L83.1514 4.19303L83.0585 4.05361L82.9655 3.90489L82.8819 3.74688L82.789 3.61675L82.7053 3.48662L82.5938 3.33791L82.4916 3.21707L82.3986 3.08695L82.2499 2.91964L82.1291 2.77092L81.934 2.57573L81.7388 2.36195L81.5622 2.19464L81.4135 2.05522L81.2369 1.9065L80.9767 1.69272L80.4841 1.34881L80.447 1.31163L80.4098 1.29304L80.3726 1.27445L80.3354 1.23727L80.2983 1.21868L80.2611 1.20009L80.2425 1.1815L80.2053 1.16291L80.1682 1.14432L80.131 1.12573L80.0938 1.10715L80.0752 1.08855L80.0566 1.06997H80.0288L80.0195 1.05138L79.9823 1.03279L79.9451 1.0142L79.9079 0.995607L79.8708 0.977016L79.8336 0.958427L79.7964 0.939838L79.7592 0.921247L79.7221 0.902658L79.6849 0.884069L79.6477 0.865479L79.6105 0.846889L79.5734 0.828299L79.5362 0.80971L79.499 0.791121L79.4618 0.77253L79.4247 0.753941L79.3875 0.735352L79.3689 0.716761H79.341L79.3131 0.698172H79.3039L79.276 0.679583L79.2388 0.670286L79.2016 0.651697L79.1644 0.642403L79.1273 0.623814L79.0715 0.605223L79.0343 0.586634L78.9786 0.568045L78.9414 0.549454L78.8949 0.530865L78.8392 0.512276L78.7927 0.493685L78.7276 0.475096L78.6812 0.456505L78.6254 0.437916L78.5697 0.419327L78.5046 0.400736L78.421 0.382147L78.3745 0.363558L78.328 0.344967L78.2723 0.326378L78.1979 0.307789L78.1421 0.289198L78.0678 0.270609L77.9842 0.25202L77.9191 0.233429L77.8448 0.21484L77.7611 0.196251L77.6775 0.17766L77.5845 0.159071L77.4823 0.140482L77.3801 0.121891L77.2685 0.103302L77.2221 0.0940075L77.1384 0.0847111H77.0827L77.0083 0.0661221H76.934L76.8689 0.047533H76.7853L76.7109 0.0289421L76.6273 0.0196476H76.5622L76.5251 0.0103531L76.5065 0.00105858H76.4879H76.4693H76.4507H76.4321H76.4135H76.3949H76.3764H76.3485H76.3113H76.2834H76.2462H74.6849Z" fill="#97FD04"/>
<path d="M81.2484 22.441H74.6963V25.4039H82.3537L82.483 25.3854L82.5754 25.367L82.6957 25.3392L82.8253 25.293L82.9738 25.2373L83.1123 25.1819L83.3527 25.0341L83.4916 24.923L83.6025 24.8214L83.7135 24.7013L83.8248 24.5623L83.9079 24.4422L84.0004 24.2851L84.13 23.9707L84.167 23.8227L84.1947 23.6934L84.2039 23.5831V7.83112L84.1761 7.46987L84.1296 7.11692L84.1296 7.11669L84.0925 6.76434L84.0647 6.6441L84.0646 6.64376L84.0368 6.458L83.9997 6.30077L83.9533 6.14307L83.9533 6.14302L83.9162 6.01322L83.8606 5.83707L83.8141 5.70704L83.814 5.70668L83.8139 5.70632L83.7768 5.56734L83.7212 5.41926L83.7211 5.419L83.721 5.41877L83.6748 5.27085L83.6098 5.141L83.6096 5.14047L83.5632 5.0106L83.4985 4.85361L83.4244 4.724L83.4242 4.72365L83.4241 4.72329L83.3683 4.60262L83.2849 4.44516L83.155 4.20401L83.0622 4.06498L83.0622 4.06485L82.9692 3.91624L82.969 3.91597L82.9689 3.91568L82.8856 3.75842L82.7929 3.62881L82.7928 3.6286L82.7927 3.62842L82.7092 3.49865L82.5981 3.35058L82.496 3.23002L82.4958 3.22973L82.4955 3.22942L82.4029 3.09975L82.2545 2.93296L82.2544 2.93282L82.2543 2.93265L82.1338 2.78444L81.9388 2.58956L81.9386 2.5894L81.7438 2.3761L81.5674 2.20911L81.4189 2.07001L81.2425 1.92158L80.9826 1.70817L80.4903 1.36473L80.4897 1.36426L80.453 1.3276L80.3786 1.29045L80.3414 1.25329L80.2671 1.21614L80.2485 1.19757L80.0998 1.12326L80.0643 1.08776H80.0345L80.0319 1.08263L80.024 1.06683L79.3935 0.75174L79.3765 0.734816H79.3497L79.3218 0.716238H79.3125L79.2837 0.69701L79.248 0.688103L79.247 0.687849L79.2099 0.669291L79.1737 0.660238L79.1727 0.659985L79.1352 0.641264L79.08 0.622887L79.0794 0.622669L79.0788 0.622379L79.0423 0.604111L78.9871 0.585733L78.9865 0.585516L78.9859 0.585226L78.949 0.566778L78.9035 0.548582L78.8477 0.530006L78.8474 0.529915L78.8472 0.529806L78.8012 0.511431L78.7366 0.492962L78.7361 0.492836L78.7357 0.492655L78.6897 0.474277L78.5782 0.437126L78.5139 0.418768L78.4304 0.400227L78.4297 0.400064L78.429 0.399775L78.3365 0.362822L78.2811 0.344355L78.2071 0.325869L78.2068 0.325777L78.2064 0.325668L78.151 0.307201L78.0771 0.288734L77.9936 0.270195L77.993 0.27005L77.9283 0.251564L77.854 0.233006L77.6869 0.19589L77.5943 0.177387L77.3898 0.140234L77.2785 0.121677L77.2783 0.121658L77.2782 0.121622L77.2322 0.112425L77.1493 0.103228H77.093L77.0919 0.102955L77.0186 0.0846519H76.9441L76.9428 0.0842876L76.8791 0.0660744H76.7956L76.7945 0.0658035L76.7207 0.04739L76.6382 0.0382118H76.5725L76.5714 0.0379391L76.5342 0.0286503L76.5332 0.0283966L76.5157 0.0196342H74.7056V2.99181H76.2397L76.2404 2.9919L76.3054 3.00119L76.4442 3.01968H76.5746L76.5755 3.01986L76.7612 3.05697L76.8724 3.07551L77.0579 3.09403L77.0586 3.09411L77.0593 3.09429L77.1987 3.13144L77.3565 3.16854L77.3568 3.16861L77.3571 3.1687L77.5058 3.21514L77.7848 3.30808L77.7854 3.30829L77.786 3.30858L77.8971 3.36413L78.0732 3.42893L78.0735 3.42906L78.0739 3.42922L78.2133 3.49424L78.3991 3.57777L78.3992 3.57785L78.3994 3.57794L78.5298 3.6431L78.5301 3.64326L78.688 3.73609L78.8181 3.81038L78.8186 3.8107L78.8191 3.81108L78.9397 3.90378L79.0788 3.99648L79.0794 3.99686L79.0799 3.9973L79.1723 4.08042L79.2739 4.14498L79.274 4.14509L79.3671 4.21023L79.3678 4.21069L79.4517 4.29452L79.5448 4.37827L79.545 4.37845L79.6195 4.45297L79.6197 4.45321L79.6844 4.52703L79.8519 4.67587L79.945 4.79685L80.0287 4.88051L80.1033 4.98294L80.1776 5.07582L80.1778 5.07598L80.1779 5.07616L80.3267 5.2807L80.3269 5.2809L80.4474 5.4663L80.5589 5.61476L80.5595 5.61558L80.5599 5.61652L80.6434 5.80205L80.7828 6.08998L80.7829 6.09016L80.8851 6.31307L80.8853 6.31334L80.8854 6.31363L80.9597 6.50868L80.9599 6.50915L81.0343 6.74135L81.0343 6.7415L81.0901 6.93668L81.0902 6.93707L81.1367 7.13212L81.1367 7.13232L81.1368 7.13252L81.1832 7.37401L81.2204 7.55034L81.2205 7.55079L81.2205 7.55125L81.2484 7.81182V22.441ZM81.2299 7.8128L81.2021 7.5537L81.165 7.37768L81.165 7.37753L81.1185 7.13615L81.0722 6.9415L81.0165 6.74701L80.9422 6.51481L80.8681 6.32053L80.7661 6.09807L80.6267 5.81014L80.6266 5.8099L80.5434 5.6251L80.4324 5.47729L80.4323 5.47704L80.4321 5.47678L80.3114 5.29126L80.1631 5.08743L80.0888 4.99455L80.0886 4.99438L80.0885 4.9942L80.0146 4.89263L79.9314 4.80955L79.931 4.80913L79.9306 4.80864L79.8383 4.6886L79.6716 4.54058L79.6712 4.54018L79.606 4.46573L79.5322 4.39193L79.439 4.30817L79.4389 4.30799L79.3558 4.22498L79.2639 4.16065L79.1616 4.09564L79.161 4.09522L79.1604 4.09471L79.0679 4.01152L78.9291 3.91906L78.9286 3.91869L78.8083 3.82623L78.6787 3.75222L78.6786 3.75214L78.5209 3.65944L78.3912 3.59465L78.2056 3.51113L78.2054 3.51107L78.0663 3.44616L77.8902 3.38133L77.8897 3.38117L77.8892 3.38093L77.7783 3.32551L77.5003 3.23288L77.3517 3.1865L77.1942 3.14945L77.1941 3.14944L77.1939 3.1494L77.0552 3.11243L76.8701 3.09393L76.8698 3.09391L76.8695 3.09385L76.758 3.07528L76.7579 3.07526L76.7577 3.07522L76.5727 3.03825H76.4429L76.4423 3.03818L76.3029 3.0196L76.3028 3.01958L76.2384 3.01039H74.687V0.00105858H76.5201L76.5397 0.0108738L76.5748 0.0196342H76.6392L76.6397 0.0196896L76.7234 0.0289764L76.724 0.0290508L76.7246 0.0291958L76.7979 0.0474987H76.8817L76.8829 0.0478611L76.9467 0.0660744H77.0209L77.022 0.0663471L77.0953 0.0846519H77.1504L77.1509 0.0847054L77.2345 0.0939941L77.2349 0.0940475L77.2353 0.09412L77.2816 0.103373L77.393 0.121931L77.3932 0.121948L77.5976 0.159101L77.5978 0.159138L77.6907 0.177713L77.6909 0.17775L77.8582 0.214901L77.8584 0.214956L77.9329 0.233568L77.9331 0.233624L77.9978 0.25209L78.0813 0.27063L78.0815 0.270685L78.1559 0.289261L78.1562 0.289351L78.1565 0.289459L78.212 0.307928L78.286 0.326412L78.2863 0.326504L78.2867 0.326612L78.3424 0.345188L78.3427 0.34528L78.3429 0.345388L78.4351 0.38225L78.5181 0.400663L78.5186 0.400808L78.5837 0.419384L78.5839 0.419437L78.5841 0.419493L78.6956 0.456644L78.6958 0.456736L78.6961 0.456844L78.7421 0.475239L78.8067 0.493689L78.8072 0.493814L78.8076 0.493998L78.8536 0.512373L78.9093 0.530949L78.9096 0.53104L78.9099 0.531149L78.9567 0.54987L78.957 0.550034L78.9936 0.5683L79.0487 0.586678L79.0494 0.586895L79.05 0.587185L79.0865 0.605453L79.1417 0.623831L79.1423 0.624048L79.1429 0.624338L79.1792 0.64246L79.2153 0.651495L79.2163 0.651749L79.2535 0.670324L79.2897 0.679359L79.2913 0.679758L79.2926 0.680647L79.3181 0.697662H79.3274L79.3553 0.716238H79.3842L79.4045 0.736465L80.0351 1.05159L80.0379 1.05297L80.0393 1.05574L80.046 1.06919H80.072L80.1108 1.10799L80.2595 1.18229L80.2781 1.20087L80.3524 1.23802L80.3896 1.27517L80.464 1.31232L80.5016 1.34997L80.9935 1.69315L80.9938 1.69337L80.9941 1.69359L81.2543 1.90721L81.2544 1.90729L81.431 2.05589L81.4314 2.05622L81.5801 2.19554L81.5801 2.19558L81.7567 2.36276L81.757 2.363L81.7572 2.36325L81.9521 2.57657L82.1476 2.77196L82.1479 2.77233L82.2684 2.92063L82.4171 3.08781L82.4175 3.08817L82.4177 3.08857L82.5105 3.21835L82.6124 3.33875L82.6126 3.33897L82.7243 3.4878L82.7245 3.48807L82.7247 3.48834L82.8081 3.61799L82.9014 3.74853L82.9017 3.74908L82.9852 3.90672L83.0778 4.05478L83.1707 4.19411L83.1709 4.19447L83.1712 4.19485L83.3013 4.43634L83.3013 4.43639L83.3849 4.59429L83.3851 4.59453L83.3852 4.59474L83.4408 4.71513L83.5149 4.84481L83.5152 4.84534L83.5154 4.84588L83.5805 5.00378L83.5806 5.00398L83.5807 5.0042L83.6269 5.13367L83.6917 5.26323L83.6921 5.2639L83.6923 5.26461L83.7388 5.41322L83.7945 5.56177L83.7946 5.56221L83.8318 5.70127L83.8781 5.83084L83.8782 5.83116L83.9339 6.00764L83.934 6.00787L83.9712 6.1379L84.0176 6.29575L84.0177 6.29598L84.0178 6.29623L84.0549 6.45413L84.055 6.45449L84.0551 6.45488L84.0829 6.6402L84.1107 6.76067L84.1108 6.76122L84.1109 6.76178L84.148 7.11449L84.1945 7.46744L84.1946 7.46795L84.2224 7.83018L84.2225 7.83052V23.5838L84.2224 23.5842L84.2131 23.6957L84.2131 23.6962L84.213 23.6968L84.1851 23.8269L84.1851 23.827L84.1477 23.9764L84.1474 23.9771L84.0173 24.2929L84.0171 24.2934L84.0167 24.294L83.9238 24.4519L83.9236 24.4522L83.9234 24.4525L83.8398 24.5732L83.8396 24.5735L83.8394 24.5738L83.7279 24.7131L83.7276 24.7133L83.6159 24.8343L83.6157 24.8346L83.6154 24.8349L83.5038 24.937L83.5036 24.9372L83.5034 24.9374L83.3635 25.0493L83.363 25.0496L83.1214 25.1982L83.1207 25.1986L83.12 25.1989L82.9805 25.2546L82.9804 25.2547L82.8315 25.3105L82.7009 25.3571L82.7004 25.3572L82.5796 25.3851L82.5794 25.3851L82.5793 25.3851L82.4863 25.4037L82.4861 25.4038L82.3557 25.4224L82.3551 25.4225H74.6777V22.4224H81.2299V7.8128Z" fill="#97FD04"/>
<path d="M72.9978 8.34238L70.9742 12.1227L74.8643 19.2911C75.442 19.2893 77.9985 19.2949 78.9407 19.2963L72.9978 8.34238Z" fill="#97FD04"/>
<path d="M74.8179 6.18472C74.7655 7.85596 74.7993 9.52921 74.8055 11.201L78.9221 18.8089C78.9089 14.5824 79.0041 10.4082 78.9345 6.1828L74.8179 6.18472Z" fill="#97FD04"/>
<path d="M66.8186 6.08688C66.8312 6.49048 66.8107 6.9685 66.814 7.38328L66.8116 11.2011L62.7371 19.164C62.7064 18.7506 62.7311 17.9874 62.7313 17.5602L62.7312 8.24663C62.731 7.55097 62.6992 6.79483 62.7103 6.11763C62.8726 6.12085 63.0345 6.09734 63.1968 6.09516C64.4038 6.07886 65.6116 6.10235 66.8186 6.08688Z" fill="#97FD04"/>
<path d="M68.7825 8.11652L72.8734 8.13615C72.8734 8.13615 71.5007 10.6691 70.8495 11.9202C70.8495 11.9202 70.427 12.662 70.2909 12.9158L69.289 14.7763L67.6764 17.735C67.4047 18.2292 67.0479 18.8372 66.8013 19.3335C66.2248 19.3317 63.8743 19.3308 62.9341 19.3322L66.8804 11.641C66.8806 11.6407 66.8809 11.6405 66.8811 11.6402C67.3058 10.7907 67.7748 9.96126 68.2288 9.12684C68.4124 8.78933 68.6048 8.45686 68.7825 8.11652Z" fill="#97FD04"/>
<path d="M91.3442 29.9016L90.5603 29.9872C90.5382 29.908 90.4994 29.8336 90.444 29.7639C90.3901 29.6942 90.3173 29.638 90.2254 29.5952C90.1336 29.5525 90.0212 29.5311 89.8881 29.5311C89.7092 29.5311 89.5588 29.5699 89.4368 29.6475C89.3165 29.7251 89.2571 29.8256 89.2587 29.9491C89.2571 30.0552 89.2959 30.1415 89.3751 30.2081C89.4558 30.2746 89.5889 30.3292 89.7741 30.3719L90.3964 30.505C90.7417 30.5794 90.9982 30.6974 91.166 30.8589C91.3355 31.0204 91.421 31.2318 91.4226 31.4931C91.421 31.7227 91.3537 31.9254 91.2207 32.1012C91.0892 32.2753 90.9063 32.4115 90.672 32.5097C90.4376 32.6079 90.1684 32.657 89.8644 32.657C89.4178 32.657 89.0584 32.5635 88.786 32.3767C88.5136 32.1882 88.3513 31.9262 88.2991 31.5905L89.1375 31.5097C89.1756 31.6744 89.2563 31.7987 89.3798 31.8826C89.5033 31.9666 89.6641 32.0085 89.862 32.0085C90.0663 32.0085 90.2302 31.9666 90.3537 31.8826C90.4788 31.7987 90.5413 31.695 90.5413 31.5715C90.5413 31.467 90.501 31.3807 90.4202 31.3126C90.341 31.2445 90.2175 31.1922 90.0497 31.1558L89.4273 31.0252C89.0774 30.9523 88.8185 30.8296 88.6506 30.657C88.4828 30.4828 88.3996 30.2627 88.4012 29.9967C88.3996 29.7718 88.4606 29.577 88.5841 29.4123C88.7092 29.2461 88.8826 29.1178 89.1043 29.0275C89.3276 28.9357 89.5849 28.8898 89.8763 28.8898C90.3038 28.8898 90.6403 28.9808 90.8858 29.1629C91.1328 29.345 91.2856 29.5913 91.3442 29.9016Z" fill="#97FD04"/>
<path d="M85.809 32.5857V28.9372H86.6427V29.5453H86.6808C86.7473 29.3347 86.8613 29.1724 87.0228 29.0584C87.1859 28.9428 87.372 28.885 87.581 28.885C87.6285 28.885 87.6815 28.8874 87.7401 28.8921C87.8003 28.8953 87.8502 28.9008 87.8898 28.9087V29.6997C87.8533 29.687 87.7956 29.6759 87.7164 29.6664C87.6388 29.6554 87.5636 29.6498 87.4907 29.6498C87.334 29.6498 87.193 29.6839 87.0679 29.752C86.9444 29.8185 86.847 29.9111 86.7758 30.0299C86.7045 30.1486 86.6689 30.2856 86.6689 30.4408V32.5857H85.809Z" fill="#97FD04"/>
<path d="M83.4593 32.6571C83.0935 32.6571 82.7776 32.5811 82.5116 32.429C82.2472 32.2754 82.0437 32.0585 81.9012 31.7782C81.7586 31.4963 81.6874 31.1646 81.6874 30.783C81.6874 30.4077 81.7586 30.0783 81.9012 29.7948C82.0453 29.5098 82.2464 29.2881 82.5045 29.1298C82.7626 28.9698 83.0658 28.8899 83.4142 28.8899C83.6391 28.8899 83.8513 28.9263 84.0508 28.9991C84.2519 29.0704 84.4292 29.1812 84.5829 29.3317C84.738 29.4821 84.86 29.6737 84.9486 29.9065C85.0373 30.1377 85.0817 30.4132 85.0817 30.7331V30.9967H82.0912V30.4172H84.2574C84.2559 30.2525 84.2202 30.106 84.1506 29.9777C84.0809 29.8479 83.9835 29.7458 83.8584 29.6713C83.7349 29.5969 83.5908 29.5597 83.4261 29.5597C83.2503 29.5597 83.0959 29.6024 82.9629 29.688C82.8299 29.7719 82.7262 29.8827 82.6517 30.0205C82.5789 30.1567 82.5417 30.3063 82.5401 30.4694V30.9754C82.5401 31.1876 82.5789 31.3697 82.6565 31.5217C82.7341 31.6721 82.8426 31.7877 82.9819 31.8685C83.1213 31.9476 83.2844 31.9872 83.4712 31.9872C83.5963 31.9872 83.7095 31.9698 83.8109 31.935C83.9122 31.8986 84.0001 31.8455 84.0745 31.7758C84.149 31.7062 84.2052 31.6199 84.2432 31.5169L85.046 31.6072C84.9954 31.8194 84.8988 32.0047 84.7562 32.163C84.6153 32.3198 84.4348 32.4417 84.2147 32.5288C83.9946 32.6143 83.7428 32.6571 83.4593 32.6571Z" fill="#97FD04"/>
<path d="M80.0998 32.5857V28.9372H80.9597V32.5857H80.0998ZM80.5321 28.4194C80.396 28.4194 80.2788 28.3743 80.1806 28.284C80.0824 28.1922 80.0333 28.0821 80.0333 27.9539C80.0333 27.824 80.0824 27.714 80.1806 27.6237C80.2788 27.5319 80.396 27.4859 80.5321 27.4859C80.6699 27.4859 80.7871 27.5319 80.8837 27.6237C80.9819 27.714 81.0309 27.824 81.0309 27.9539C81.0309 28.0821 80.9819 28.1922 80.8837 28.284C80.7871 28.3743 80.6699 28.4194 80.5321 28.4194Z" fill="#97FD04"/>
<path d="M77.5059 34.03C77.1971 34.03 76.9319 33.988 76.7102 33.9041C76.4885 33.8217 76.3104 33.7109 76.1758 33.5715C76.0412 33.4322 75.9477 33.2778 75.8955 33.1084L76.6698 32.9207C76.7047 32.992 76.7553 33.0624 76.8218 33.1321C76.8884 33.2034 76.9778 33.262 77.0903 33.3079C77.2043 33.3554 77.3476 33.3792 77.5202 33.3792C77.764 33.3792 77.9659 33.3198 78.1259 33.201C78.2858 33.0838 78.3658 32.8906 78.3658 32.6214V31.9302H78.323C78.2787 32.0189 78.2138 32.11 78.1283 32.2034C78.0443 32.2968 77.9327 32.3752 77.7933 32.4385C77.6556 32.5019 77.4822 32.5335 77.2731 32.5335C76.9929 32.5335 76.7387 32.4678 76.5107 32.3364C76.2842 32.2034 76.1037 32.0054 75.9691 31.7426C75.8361 31.4781 75.7696 31.1472 75.7696 30.7497C75.7696 30.3491 75.8361 30.011 75.9691 29.7355C76.1037 29.4583 76.285 29.2485 76.5131 29.106C76.7411 28.9619 76.9952 28.8899 77.2755 28.8899C77.4893 28.8899 77.6651 28.9263 77.8028 28.9991C77.9422 29.0704 78.053 29.1567 78.1354 29.258C78.2177 29.3578 78.2803 29.452 78.323 29.5407H78.3705V28.9374H79.2185V32.6452C79.2185 32.9571 79.1441 33.2153 78.9952 33.4195C78.8464 33.6238 78.6429 33.7766 78.3848 33.878C78.1267 33.9793 77.8337 34.03 77.5059 34.03ZM77.5131 31.859C77.6952 31.859 77.8503 31.8146 77.9786 31.726C78.1069 31.6373 78.2043 31.5098 78.2708 31.3435C78.3373 31.1773 78.3705 30.9777 78.3705 30.745C78.3705 30.5153 78.3373 30.3142 78.2708 30.1416C78.2058 29.969 78.1093 29.8352 77.981 29.7402C77.8543 29.6436 77.6983 29.5953 77.5131 29.5953C77.3214 29.5953 77.1615 29.6452 77.0332 29.745C76.905 29.8447 76.8084 29.9817 76.7435 30.1559C76.6785 30.3285 76.6461 30.5248 76.6461 30.745C76.6461 30.9682 76.6785 31.1638 76.7435 31.3317C76.81 31.4979 76.9074 31.6278 77.0356 31.7212C77.1655 31.813 77.3246 31.859 77.5131 31.859Z" fill="#97FD04"/>
<path d="M75.0351 27.7211V32.5857H74.1752V27.7211H75.0351Z" fill="#97FD04"/>
<path d="M69.9977 32.5857H69.0571L70.7697 27.7211H71.8576L73.5725 32.5857H72.6319L71.3327 28.7187H71.2946L69.9977 32.5857ZM70.0286 30.6783H72.5939V31.3861H70.0286V30.6783Z" fill="#97FD04"/>
<path d="M61.6521 27.7211H62.7305L64.1747 31.2461H64.2317L65.6758 27.7211H66.7542V32.5857H65.9086V29.2437H65.8635L64.5191 32.5715H63.8872L62.5428 29.2366H62.4977V32.5857H61.6521V27.7211Z" fill="#97FD04"/>
<path d="M57.0229 28.4598V27.7211H60.9042V28.4598H59.4006V32.5857H58.5265V28.4598H57.0229Z" fill="#97FD04"/>
<path d="M51.5256 32.5857L50.1526 27.7211H51.1004L51.9769 31.2959H52.022L52.9579 27.7211H53.8201L54.7583 31.2982H54.8011L55.6776 27.7211H56.6253L55.2524 32.5857H54.383L53.4092 29.1724H53.3712L52.3949 32.5857H51.5256Z" fill="#97FD04"/>
</svg>
